<?xml version="1.0" standalone="no"?>
<!DOCTYPE svg PUBLIC "-//W3C//DTD SVG 20010904//EN"
 "http://www.w3.org/TR/2001/REC-SVG-20010904/DTD/svg10.dtd">
<svg version="1.0" xmlns="http://www.w3.org/2000/svg"
 width="1200.000000pt" height="1200.000000pt" viewBox="0 0 1200.000000 1200.000000"
 preserveAspectRatio="xMidYMid meet">

<g transform="translate(0.000000,1200.000000) scale(0.100000,-0.100000)"
fill="#000000" stroke="none">
<path d="M0 6005 l0 -5995 6000 0 6000 0 0 5995 0 5995 -6000 0 -6000 0 0
-5995z m4760 2117 c47 -11 119 -33 160 -47 463 -168 785 -609 875 -1199 34
-227 37 -342 42 -1628 l5 -1288 -520 0 -519 0 -6 1243 c-4 772 -10 1274 -16
1327 -46 367 -172 651 -381 860 -207 207 -477 323 -805 346 -112 8 -109 10
-202 -114 -99 -132 -180 -304 -221 -472 -52 -210 -52 -214 -52 -1756 l0 -1434
-519 0 -519 0 -4 1158 c-2 636 0 1216 4 1287 14 231 55 409 133 570 219 452
686 755 1180 766 l90 2 83 73 c192 168 409 273 657 319 116 21 420 13 535 -13z
m2459 -2607 c25 -232 74 -411 160 -582 200 -397 561 -629 1027 -659 l100 -7
55 62 c146 166 250 394 294 649 33 188 35 336 29 1710 l-7 1362 521 0 522 0 3
-982 c3 -1406 3 -1481 -12 -1593 -41 -320 -157 -568 -365 -784 -121 -125 -236
-209 -381 -281 -187 -92 -370 -139 -552 -141 l-97 -1 -71 -64 c-177 -162 -386
-270 -625 -321 -106 -22 -440 -25 -535 -5 -272 60 -465 162 -645 342 -276 275
-420 641 -461 1170 -6 78 -13 671 -16 1397 l-6 1263 519 2 519 3 7 -1215 c4
-796 10 -1253 17 -1325z"/>
</g>
</svg>
