<?xml version="1.0" standalone="no"?>
<!DOCTYPE svg PUBLIC "-//W3C//DTD SVG 20010904//EN"
 "http://www.w3.org/TR/2001/REC-SVG-20010904/DTD/svg10.dtd">
<svg version="1.0" xmlns="http://www.w3.org/2000/svg"
 width="1280.000000pt" height="1280.000000pt" viewBox="0 0 1280.000000 1280.000000"
 preserveAspectRatio="xMidYMid meet">

<g transform="translate(0.000000,1280.000000) scale(0.100000,-0.100000)"
fill="#000000" stroke="none">
<path d="M2693 11853 c48 -2 125 -2 170 0 45 1 6 3 -88 3 -93 0 -130 -2 -82
-3z"/>
<path d="M3228 11853 c106 -2 277 -2 380 0 103 1 16 2 -193 2 -209 0 -293 -1
-187 -2z"/>
<path d="M4298 11853 c248 -2 656 -2 905 0 248 1 45 2 -453 2 -498 0 -701 -1
-452 -2z"/>
<path d="M5818 11853 c57 -2 147 -2 200 0 53 1 7 3 -103 3 -110 0 -154 -2 -97
-3z"/>
<path d="M7410 11850 c0 -5 5 -10 10 -10 6 0 10 5 10 10 0 6 -4 10 -10 10 -5
0 -10 -4 -10 -10z"/>
<path d="M9037 11853 l1603 -3 3 -853 2 -852 3 858 2 857 -1607 -2 -1608 -3
1602 -2z"/>
<path d="M6425 11836 c17 -7 41 -16 55 -20 20 -5 19 -3 -5 8 -16 7 -41 16 -55
20 -20 5 -19 3 5 -8z"/>
<path d="M7465 11825 c17 -7 46 -15 65 -19 29 -5 26 -2 -15 13 -56 22 -97 27
-50 6z"/>
<path d="M2554 11720 c0 -63 1 -89 3 -57 2 31 2 83 0 115 -2 31 -3 5 -3 -58z"/>
<path d="M6580 11775 c14 -8 30 -14 35 -14 6 0 -1 6 -15 14 -14 8 -29 14 -35
14 -5 0 1 -6 15 -14z"/>
<path d="M7601 11786 c9 -10 89 -33 89 -26 0 4 -17 12 -39 18 -40 12 -57 15
-50 8z"/>
<path d="M6640 11750 c8 -5 20 -10 25 -10 6 0 3 5 -5 10 -8 5 -19 10 -25 10
-5 0 -3 -5 5 -10z"/>
<path d="M7708 11753 c7 -3 16 -2 19 1 4 3 -2 6 -13 5 -11 0 -14 -3 -6 -6z"/>
<path d="M7770 11737 c0 -8 101 -40 107 -34 3 3 -14 11 -37 17 -23 6 -48 14
-56 17 -8 3 -14 3 -14 0z"/>
<path d="M6720 11715 c14 -8 30 -14 35 -14 6 0 -1 6 -15 14 -14 8 -29 14 -35
14 -5 0 1 -6 15 -14z"/>
<path d="M6771 11696 c8 -8 79 -35 79 -30 0 3 -16 12 -35 20 -33 14 -53 18
-44 10z"/>
<path d="M7959 11674 c41 -14 76 -22 78 -20 5 5 -128 47 -143 45 -5 -1 24 -12
65 -25z"/>
<path d="M6860 11657 c0 -3 15 -10 32 -16 18 -6 28 -7 23 -2 -12 10 -55 25
-55 18z"/>
<path d="M8058 11643 c7 -3 16 -2 19 1 4 3 -2 6 -13 5 -11 0 -14 -3 -6 -6z"/>
<path d="M8115 11626 c17 -7 46 -16 65 -19 30 -6 29 -4 -9 8 -66 22 -90 26
-56 11z"/>
<path d="M6980 11605 c14 -8 30 -14 35 -14 6 0 -1 6 -15 14 -14 8 -29 14 -35
14 -5 0 1 -6 15 -14z"/>
<path d="M8255 11584 c22 -9 92 -31 155 -50 156 -47 156 -47 150 -41 -6 7
-325 107 -337 106 -4 0 10 -7 32 -15z"/>
<path d="M7030 11586 c0 -2 7 -7 16 -10 8 -3 12 -2 9 4 -6 10 -25 14 -25 6z"/>
<path d="M2555 10225 c0 -731 1 -1029 2 -662 2 368 2 966 0 1330 -1 364 -2 64
-2 -668z"/>
<path d="M7140 11535 c14 -8 30 -14 35 -14 6 0 -1 6 -15 14 -14 8 -29 14 -35
14 -5 0 1 -6 15 -14z"/>
<path d="M7197 11509 c7 -7 15 -10 18 -7 3 3 -2 9 -12 12 -14 6 -15 5 -6 -5z"/>
<path d="M8615 11470 c28 -10 57 -18 65 -18 8 0 -7 8 -35 18 -27 10 -57 18
-65 18 -8 0 8 -8 35 -18z"/>
<path d="M7300 11465 c14 -8 30 -14 35 -14 6 0 -1 6 -15 14 -14 8 -29 14 -35
14 -5 0 1 -6 15 -14z"/>
<path d="M7374 11435 c36 -19 45 -19 20 0 -10 8 -26 14 -34 15 -8 0 -2 -7 14
-15z"/>
<path d="M8745 11430 c28 -10 57 -18 65 -18 8 0 -7 8 -35 18 -27 10 -57 18
-65 18 -8 0 8 -8 35 -18z"/>
<path d="M7440 11405 c14 -8 30 -14 35 -14 6 0 -1 6 -15 14 -14 8 -29 14 -35
14 -5 0 1 -6 15 -14z"/>
<path d="M8910 11380 c47 -16 94 -29 105 -29 11 0 -23 13 -75 29 -121 38 -143
37 -30 0z"/>
<path d="M7491 11386 c2 -2 15 -9 29 -15 24 -11 24 -11 6 3 -16 13 -49 24 -35
12z"/>
<path d="M7598 11338 c12 -6 22 -15 22 -20 0 -4 5 -8 10 -8 19 0 10 17 -15 28
-33 15 -48 14 -17 0z"/>
<path d="M9065 11335 c17 -8 44 -14 60 -14 24 0 20 3 -20 14 -63 18 -79 17
-40 0z"/>
<path d="M3172 9148 l3 -2173 2 2167 3 2168 2213 3 2212 2 -2217 3 -2218 2 2
-2172z"/>
<path d="M9638 11313 l472 -3 2 -483 3 -482 5 480 c3 264 4 483 2 488 -2 4
-218 6 -480 5 l-477 -3 473 -2z"/>
<path d="M6433 10843 c15 -2 39 -2 55 0 15 2 2 4 -28 4 -30 0 -43 -2 -27 -4z"/>
<path d="M6358 10833 c7 -3 16 -2 19 1 4 3 -2 6 -13 5 -11 0 -14 -3 -6 -6z"/>
<path d="M6559 10825 c18 -8 36 -15 40 -15 13 1 -45 29 -59 29 -8 0 0 -6 19
-14z"/>
<path d="M6185 10759 c-60 -34 -117 -68 -125 -77 -11 -11 -8 -11 14 2 15 10
76 45 134 77 59 32 102 59 97 59 -6 0 -59 -28 -120 -61z"/>
<path d="M6630 10796 c0 -2 7 -7 16 -10 8 -3 12 -2 9 4 -6 10 -25 14 -25 6z"/>
<path d="M6675 10773 c14 -14 153 -88 140 -75 -5 5 -41 27 -80 48 -38 20 -65
33 -60 27z"/>
<path d="M6860 10666 c0 -3 9 -10 20 -16 11 -6 20 -8 20 -6 0 3 -9 10 -20 16
-11 6 -20 8 -20 6z"/>
<path d="M5925 10604 c-49 -31 -94 -61 -100 -67 -5 -6 1 -4 15 4 133 80 193
120 178 119 -2 0 -43 -25 -93 -56z"/>
<path d="M6910 10636 c0 -3 9 -10 20 -16 11 -6 20 -8 20 -6 0 3 -9 10 -20 16
-11 6 -20 8 -20 6z"/>
<path d="M6354 10616 c-18 -8 -74 -41 -125 -73 -52 -33 -139 -86 -194 -118
-130 -76 -942 -568 -1110 -673 -150 -92 -164 -106 -202 -187 l-28 -60 0 -710
c0 -662 1 -714 18 -762 25 -71 80 -125 207 -201 590 -357 1404 -842 1439 -857
28 -13 66 -19 102 -19 66 1 100 17 314 147 134 82 286 175 610 372 83 50 238
145 345 210 388 235 443 278 474 372 15 45 16 122 14 764 l-3 714 -34 59 c-30
53 -46 67 -152 135 -143 91 -189 119 -479 291 -269 159 -314 185 -540 321
-481 290 -479 289 -565 289 -33 -1 -74 -7 -91 -14z m240 -518 c50 -28 199
-117 331 -196 132 -79 287 -172 345 -207 304 -181 478 -289 502 -311 59 -52
52 -57 -342 -294 -107 -64 -242 -146 -300 -182 -290 -178 -431 -265 -492 -304
-103 -66 -164 -94 -205 -94 -43 0 -68 13 -293 152 -403 247 -752 465 -825 512
-44 29 -104 67 -133 86 -98 61 -88 98 50 188 51 33 253 156 448 274 195 118
384 233 420 256 115 72 260 154 298 168 55 21 95 11 196 -48z m1236 -1553 l0
-415 -42 -21 c-57 -28 -196 -111 -283 -168 -38 -25 -73 -47 -77 -49 -5 -2 -8
73 -8 167 0 94 -3 171 -6 171 -6 0 -180 -113 -339 -220 -22 -15 -87 -56 -145
-92 -364 -226 -439 -268 -483 -268 -16 0 -52 12 -80 26 -67 33 -587 355 -752
465 -71 48 -133 85 -137 83 -5 -3 -8 -82 -8 -175 0 -94 -3 -169 -7 -167 -5 2
-46 28 -93 59 -47 31 -132 85 -190 120 l-105 64 -3 408 c-1 279 1 407 8 407 6
0 102 -56 213 -124 234 -143 343 -211 612 -379 83 -52 182 -112 220 -134 39
-22 119 -70 179 -107 112 -68 142 -76 193 -54 15 7 132 78 258 157 127 79 278
173 337 210 59 36 190 117 290 180 401 250 435 271 446 271 1 0 2 -187 2 -415z"/>
<path d="M6960 10606 c0 -2 7 -7 16 -10 8 -3 12 -2 9 4 -6 10 -25 14 -25 6z"/>
<path d="M7000 10587 c0 -6 132 -88 170 -106 l25 -12 -25 20 c-14 11 -29 21
-34 21 -5 0 -17 6 -25 14 -21 18 -111 69 -111 63z"/>
<path d="M5773 10510 c-34 -20 -47 -38 -15 -21 23 13 58 40 52 41 -3 0 -20 -9
-37 -20z"/>
<path d="M5705 10469 c-11 -6 -36 -21 -55 -34 -19 -12 -79 -48 -132 -79 -54
-32 -98 -60 -98 -63 0 -5 2 -4 95 52 39 23 103 61 143 85 39 23 72 44 72 46 0
6 -2 5 -25 -7z"/>
<path d="M7200 10467 c0 -3 44 -31 98 -62 53 -32 107 -65 120 -73 12 -8 22
-12 22 -9 0 3 -51 36 -112 73 -134 80 -128 76 -128 71z"/>
<path d="M7450 10316 c0 -3 9 -10 20 -16 11 -6 20 -8 20 -6 0 3 -9 10 -20 16
-11 6 -20 8 -20 6z"/>
<path d="M5369 10267 c-19 -12 -61 -37 -92 -55 -31 -19 -60 -39 -64 -44 -7
-13 -12 -15 110 59 48 30 87 56 87 59 0 6 -1 5 -41 -19z"/>
<path d="M7500 10287 c0 -2 37 -26 83 -52 45 -27 93 -56 107 -64 13 -9 21 -11
17 -5 -3 6 -48 35 -99 64 -115 66 -108 62 -108 57z"/>
<path d="M10114 10030 c0 -140 2 -198 3 -127 2 70 2 184 0 255 -1 70 -3 12 -3
-128z"/>
<path d="M5141 10130 c-54 -36 -65 -48 -26 -27 43 23 92 57 80 56 -5 0 -30
-13 -54 -29z"/>
<path d="M7740 10146 c0 -3 9 -10 20 -16 11 -6 20 -8 20 -6 0 3 -9 10 -20 16
-11 6 -20 8 -20 6z"/>
<path d="M7795 10113 c6 -5 33 -22 60 -37 28 -15 41 -20 30 -11 -22 19 -106
63 -90 48z"/>
<path d="M4975 10029 c-55 -34 -104 -66 -110 -72 -5 -6 1 -4 15 4 14 9 64 39
113 68 48 29 87 54 87 57 0 6 1 7 -105 -57z"/>
<path d="M7910 10047 c0 -3 39 -29 88 -58 105 -63 102 -61 102 -56 0 3 -33 24
-72 48 -40 23 -83 49 -95 57 -13 8 -23 12 -23 9z"/>
<path d="M8301 10024 c0 -11 3 -14 6 -6 3 7 2 16 -1 19 -3 4 -6 -2 -5 -13z"/>
<path d="M4824 9934 c-18 -14 -18 -15 4 -4 12 6 22 13 22 15 0 8 -5 6 -26 -11z"/>
<path d="M8110 9926 c0 -3 9 -10 20 -16 11 -6 20 -8 20 -6 0 3 -9 10 -20 16
-11 6 -20 8 -20 6z"/>
<path d="M8160 9897 c0 -3 12 -12 26 -22 15 -9 23 -12 20 -6 -7 11 -46 35 -46
28z"/>
<path d="M4719 9869 l-24 -20 28 17 c15 9 27 18 27 20 0 8 -8 4 -31 -17z"/>
<path d="M8220 9857 c0 -2 24 -23 53 -47 29 -25 41 -32 27 -16 -25 28 -80 71
-80 63z"/>
<path d="M4620 9794 c-32 -30 -60 -65 -63 -77 -5 -21 -5 -21 6 -2 7 11 38 46
69 78 73 73 65 74 -12 1z"/>
<path d="M8332 9743 c9 -10 28 -43 42 -73 14 -30 26 -49 26 -43 0 23 -54 122
-69 128 -12 5 -12 3 1 -12z"/>
<path d="M10112 8258 c-1 -813 1 -1478 6 -1478 6 0 6 1021 -1 2425 -1 292 -3
-135 -5 -947z"/>
<path d="M4536 9675 c-9 -26 -7 -32 5 -12 6 10 9 21 6 23 -2 3 -7 -2 -11 -11z"/>
<path d="M4502 9565 c0 -16 2 -22 5 -12 2 9 2 23 0 30 -3 6 -5 -1 -5 -18z"/>
<path d="M8412 9560 c0 -14 2 -19 5 -12 2 6 2 18 0 25 -3 6 -5 1 -5 -13z"/>
<path d="M4495 8855 c0 -341 1 -482 2 -313 2 169 2 448 0 620 -1 172 -2 34 -2
-307z"/>
<path d="M8425 8720 c0 -327 1 -461 2 -297 2 163 2 431 0 595 -1 163 -2 29 -2
-298z"/>
<path d="M10633 9200 c0 -30 2 -43 4 -27 2 15 2 39 0 55 -2 15 -4 2 -4 -28z"/>
<path d="M10633 8955 c0 -33 2 -45 4 -27 2 18 2 45 0 60 -2 15 -4 0 -4 -33z"/>
<path d="M2551 8774 c0 -11 3 -14 6 -6 3 7 2 16 -1 19 -3 4 -6 -2 -5 -13z"/>
<path d="M10633 8620 c0 -41 2 -58 4 -37 2 20 2 54 0 75 -2 20 -4 3 -4 -38z"/>
<path d="M2552 8660 c0 -14 2 -19 5 -12 2 6 2 18 0 25 -3 6 -5 1 -5 -13z"/>
<path d="M10635 7820 c0 -366 1 -515 2 -332 2 182 2 482 0 665 -1 182 -2 33
-2 -333z"/>
<path d="M8412 8075 c0 -16 2 -22 5 -12 2 9 2 23 0 30 -3 6 -5 -1 -5 -18z"/>
<path d="M4505 8011 c3 -24 13 -55 21 -70 8 -14 12 -17 8 -6 -4 11 -13 43 -20
70 l-14 50 5 -44z"/>
<path d="M8388 7982 c-22 -60 -15 -67 7 -7 10 25 16 47 14 50 -3 2 -12 -17
-21 -43z"/>
<path d="M8346 7892 c-19 -37 -97 -116 -148 -149 -21 -14 -38 -28 -38 -30 0
-8 49 26 96 65 47 38 120 130 111 138 -3 3 -12 -8 -21 -24z"/>
<path d="M4559 7874 c6 -12 9 -23 8 -25 -1 -2 0 -3 2 -2 2 1 14 -11 27 -27 36
-43 143 -118 294 -208 74 -45 146 -89 160 -99 14 -10 41 -26 60 -37 19 -10 49
-29 67 -42 17 -13 34 -24 37 -24 4 0 43 -23 89 -52 45 -28 115 -70 154 -93 40
-23 70 -45 65 -50 -4 -5 -2 -6 4 -2 5 3 46 -16 90 -43 43 -26 133 -81 199
-121 66 -40 122 -76 123 -81 2 -4 8 -8 14 -8 6 0 72 -36 147 -80 75 -44 141
-80 146 -80 10 0 -19 18 -230 140 -60 36 -152 91 -204 123 -51 33 -164 101
-250 151 -86 51 -217 130 -291 176 -74 46 -208 127 -297 181 -268 161 -343
217 -401 294 -13 17 -19 20 -13 9z"/>
<path d="M2552 7710 c0 -19 2 -27 5 -17 2 9 2 25 0 35 -3 9 -5 1 -5 -18z"/>
<path d="M8113 7689 c-35 -22 -46 -37 -15 -20 22 13 58 40 52 41 -3 0 -20 -10
-37 -21z"/>
<path d="M7835 7518 c-126 -78 -342 -210 -480 -293 -137 -84 -344 -209 -459
-279 -284 -173 -314 -187 -411 -197 l-80 -8 80 3 c98 3 116 12 410 191 116 70
282 171 370 223 88 52 183 109 210 127 100 63 263 164 420 259 144 88 188 117
175 116 -3 -1 -108 -64 -235 -142z"/>
<path d="M2553 7405 c0 -27 2 -38 4 -22 2 15 2 37 0 50 -2 12 -4 0 -4 -28z"/>
<path d="M2513 7163 c9 -2 25 -2 35 0 9 3 1 5 -18 5 -19 0 -27 -2 -17 -5z"/>
<path d="M11368 7163 c17 -2 47 -2 65 0 17 2 3 4 -33 4 -36 0 -50 -2 -32 -4z"/>
<path d="M1417 6823 c-9 -431 -7 -1607 2 -1738 4 -55 10 389 12 988 2 598 1
1087 -2 1087 -3 0 -9 -152 -12 -337z"/>
<path d="M1638 7153 c7 -3 16 -2 19 1 4 3 -2 6 -13 5 -11 0 -14 -3 -6 -6z"/>
<path d="M11485 6165 c0 -500 1 -704 2 -452 2 252 2 662 0 910 -1 249 -2 43
-2 -458z"/>
<path d="M6260 6794 c0 -7 52 -25 57 -20 2 2 -10 8 -26 14 -17 6 -31 9 -31 6z"/>
<path d="M1852 6678 l2 -113 3 107 4 108 567 3 567 2 -572 3 -573 2 2 -112z"/>
<path d="M10388 6783 c127 -2 337 -2 465 0 127 1 23 2 -233 2 -256 0 -360 -1
-232 -2z"/>
<path d="M6368 6753 c7 -3 16 -2 19 1 4 3 -2 6 -13 5 -11 0 -14 -3 -6 -6z"/>
<path d="M2793 6373 c64 -2 170 -2 235 0 64 1 11 3 -118 3 -129 0 -182 -2
-117 -3z"/>
<path d="M3450 6374 c59 -8 140 -8 140 -1 0 4 -37 6 -82 6 -46 -1 -72 -3 -58
-5z"/>
<path d="M4047 6373 l93 -4 3 -557 2 -557 3 563 2 562 -97 -2 -98 -2 92 -3z"/>
<path d="M4457 6373 l123 -4 3 -677 2 -677 3 683 2 682 -127 -2 -128 -2 122
-3z"/>
<path d="M4750 6373 c0 -5 37 -7 82 -5 143 4 157 9 36 10 -65 1 -118 -1 -118
-5z"/>
<path d="M5690 6374 c82 -8 200 -8 200 -1 0 4 -53 6 -117 5 -65 -1 -102 -3
-83 -4z"/>
<path d="M6243 6373 c37 -2 97 -2 135 0 37 2 6 3 -68 3 -74 0 -105 -1 -67 -3z"/>
<path d="M6982 6373 l317 -3 4 -118 3 -117 2 123 2 122 -322 -2 -323 -3 317
-2z"/>
<path d="M7412 5678 l3 -703 2 697 3 698 213 3 212 2 -217 3 -218 2 2 -702z"/>
<path d="M8478 6373 c29 -2 74 -2 100 0 26 2 2 3 -53 3 -55 0 -76 -1 -47 -3z"/>
<path d="M9407 6373 l113 -4 3 -682 2 -682 3 688 2 687 -117 -2 -118 -2 112
-3z"/>
<path d="M9903 6373 c103 -2 271 -2 375 0 103 1 18 2 -188 2 -206 0 -291 -1
-187 -2z"/>
<path d="M3060 6226 c-74 -76 -126 -133 -115 -125 28 20 260 258 254 261 -2 2
-65 -60 -139 -136z"/>
<path d="M3302 5953 c1 -230 4 -353 5 -273 7 368 7 690 1 690 -5 0 -7 -188 -6
-417z"/>
<path d="M4295 5745 c0 -346 1 -487 2 -312 2 175 2 459 0 630 -1 172 -2 29 -2
-318z"/>
<path d="M8637 6363 c6 -4 30 -43 53 -86 23 -42 44 -77 47 -77 11 0 -85 164
-98 168 -10 2 -10 1 -2 -5z"/>
<path d="M9268 6353 c-9 -10 -23 -34 -32 -53 -9 -19 -11 -27 -4 -16 58 85 69
106 36 69z"/>
<path d="M2454 6338 c-23 -13 -57 -37 -75 -53 -42 -38 -103 -114 -96 -121 2
-3 14 11 26 30 29 47 110 119 163 144 24 12 38 21 33 22 -6 0 -29 -10 -51 -22z"/>
<path d="M7970 6353 c8 -3 30 -12 48 -19 17 -7 32 -11 32 -8 0 7 -67 34 -82
33 -8 0 -8 -3 2 -6z"/>
<path d="M10503 6295 c0 -27 2 -38 4 -22 2 15 2 37 0 50 -2 12 -4 0 -4 -28z"/>
<path d="M5035 5795 c0 -297 1 -417 2 -267 2 150 2 393 0 540 -1 147 -2 24 -2
-273z"/>
<path d="M8061 6316 c11 -11 80 -56 86 -56 10 0 -71 59 -81 60 -5 0 -7 -2 -5
-4z"/>
<path d="M9663 6280 c0 -25 2 -35 4 -22 2 12 2 32 0 45 -2 12 -4 2 -4 -23z"/>
<path d="M9200 6248 c0 -6 -20 -45 -44 -87 -79 -138 -108 -191 -102 -191 3 0
83 137 163 283 2 4 -1 7 -6 7 -6 0 -11 -5 -11 -12z"/>
<path d="M8171 6224 c15 -16 38 -51 52 -79 15 -27 26 -46 27 -41 1 20 -65 128
-84 138 -18 9 -17 6 5 -18z"/>
<path d="M5604 6040 c0 -113 2 -159 3 -102 2 56 2 148 0 205 -1 56 -3 10 -3
-103z"/>
<path d="M8395 5620 c0 -344 1 -484 2 -312 2 171 2 453 0 625 -1 171 -2 31 -2
-313z"/>
<path d="M10473 6188 c-15 -20 -25 -38 -20 -38 3 0 12 11 21 25 17 26 16 35
-1 13z"/>
<path d="M8772 6125 c12 -24 23 -43 26 -41 4 5 -36 86 -43 86 -3 0 5 -20 17
-45z"/>
<path d="M2265 6139 c-4 -6 -5 -12 -2 -15 2 -3 7 2 10 11 7 17 1 20 -8 4z"/>
<path d="M10419 6113 l-24 -28 28 24 c15 14 27 26 27 28 0 8 -8 1 -31 -24z"/>
<path d="M6150 5966 l0 -165 -47 -4 -48 -3 53 -2 52 -2 0 170 c0 94 -2 170 -5
170 -3 0 -5 -74 -5 -164z"/>
<path d="M6584 5995 c0 -77 2 -107 3 -67 2 40 2 103 0 140 -2 37 -3 4 -3 -73z"/>
<path d="M2251 6094 c0 -11 3 -14 6 -6 3 7 2 16 -1 19 -3 4 -6 -2 -5 -13z"/>
<path d="M2678 6083 c34 -2 90 -2 125 0 34 2 6 3 -63 3 -69 0 -97 -1 -62 -3z"/>
<path d="M6862 5943 c-1 -83 1 -154 6 -156 4 -3 6 43 4 101 -4 190 -8 211 -10
55z"/>
<path d="M7003 6083 c48 -2 126 -2 175 0 48 1 8 3 -88 3 -96 0 -136 -2 -87 -3z"/>
<path d="M7690 5905 l0 -185 108 0 c116 0 163 16 177 60 11 33 -1 34 -15 1
-16 -40 -53 -51 -166 -51 l-94 0 0 175 0 174 108 4 107 3 -112 2 -113 2 0
-185z"/>
<path d="M8251 6074 c0 -11 3 -14 6 -6 3 7 2 16 -1 19 -3 4 -6 -2 -5 -13z"/>
<path d="M10028 6083 c39 -2 105 -2 145 0 39 1 7 3 -73 3 -80 0 -112 -2 -72
-3z"/>
<path d="M2566 6049 c-28 -33 -41 -70 -33 -91 3 -7 6 -3 6 10 1 32 27 78 53
96 12 9 17 16 11 16 -6 0 -23 -14 -37 -31z"/>
<path d="M7936 6062 c12 -9 26 -26 32 -37 9 -15 11 -16 12 -4 0 17 -40 59 -56
59 -5 0 1 -8 12 -18z"/>
<path d="M8820 6030 c11 -22 23 -40 25 -40 3 0 -4 18 -15 40 -11 22 -23 40
-25 40 -3 0 4 -18 15 -40z"/>
<path d="M8264 5890 c0 -63 1 -89 3 -57 2 31 2 83 0 115 -2 31 -3 5 -3 -58z"/>
<path d="M7983 5920 c0 -41 2 -58 4 -37 2 20 2 54 0 75 -2 20 -4 3 -4 -38z"/>
<path d="M8850 5976 c0 -11 40 -86 45 -86 3 0 -4 19 -16 43 -23 45 -29 54 -29
43z"/>
<path d="M9025 5930 c-9 -16 -13 -30 -11 -30 3 0 12 14 21 30 9 17 13 30 11
30 -3 0 -12 -13 -21 -30z"/>
<path d="M5882 5843 c-2 -49 0 -53 21 -52 16 1 17 3 5 6 -12 3 -18 18 -21 51
l-3 47 -2 -52z"/>
<path d="M8900 5877 c0 -15 40 -87 50 -87 5 0 14 10 20 23 11 21 10 21 -4 3
-18 -23 -17 -23 -44 29 -12 22 -21 36 -22 32z"/>
<path d="M8985 5859 c-4 -6 -5 -12 -2 -15 2 -3 7 2 10 11 7 17 1 20 -8 4z"/>
<path d="M2763 5793 c9 -2 23 -2 30 0 6 3 -1 5 -18 5 -16 0 -22 -2 -12 -5z"/>
<path d="M2903 5793 c37 -2 97 -2 135 0 37 2 6 3 -68 3 -74 0 -105 -1 -67 -3z"/>
<path d="M3138 5793 c7 -3 16 -2 19 1 4 3 -2 6 -13 5 -11 0 -14 -3 -6 -6z"/>
<path d="M7038 5793 c12 -2 30 -2 40 0 9 3 -1 5 -23 4 -22 0 -30 -2 -17 -4z"/>
<path d="M7288 5790 c12 -5 22 -13 22 -16 0 -4 -57 -66 -128 -138 -70 -72
-141 -147 -157 -166 -17 -19 40 37 125 124 85 87 159 165 164 173 9 17 -8 33
-34 32 -8 0 -5 -4 8 -9z"/>
<path d="M10232 5793 l97 -4 4 -107 3 -107 2 113 2 112 -102 -2 -103 -2 97 -3z"/>
<path d="M2533 5745 c0 -27 2 -38 4 -22 2 15 2 37 0 50 -2 12 -4 0 -4 -28z"/>
<path d="M2722 5678 c1 -116 5 -102 10 35 2 42 0 77 -4 77 -5 0 -7 -51 -6
-112z"/>
<path d="M3582 5535 c-1 -126 2 -235 6 -242 4 -6 6 71 4 170 -4 291 -8 320
-10 72z"/>
<path d="M3164 5390 c0 -190 2 -267 3 -172 2 94 2 250 0 345 -1 94 -3 17 -3
-173z"/>
<path d="M3853 5645 c0 -27 2 -38 4 -22 2 15 2 37 0 50 -2 12 -4 0 -4 -28z"/>
<path d="M8672 5624 c1 -60 2 -63 5 -19 3 27 9 52 14 56 6 3 4 11 -6 19 -13
11 -15 5 -13 -56z"/>
<path d="M9200 5650 c-11 -22 -18 -40 -15 -40 2 0 14 18 25 40 11 22 18 40 15
40 -2 0 -14 -18 -25 -40z"/>
<path d="M8246 5665 c-9 -26 -7 -32 5 -12 6 10 9 21 6 23 -2 3 -7 -2 -11 -11z"/>
<path d="M6808 5633 c100 -2 182 -6 182 -9 0 -12 -28 -33 -35 -26 -4 4 -5 2
-3 -4 2 -6 -24 -42 -57 -81 -33 -38 -72 -85 -87 -104 -15 -18 -63 -80 -107
-136 -45 -57 -79 -103 -76 -103 2 0 76 89 164 198 87 108 171 208 185 221 52
48 42 51 -161 49 l-188 -3 183 -2z"/>
<path d="M8221 5607 c-13 -21 -12 -21 5 -5 10 10 16 20 13 22 -3 3 -11 -5 -18
-17z"/>
<path d="M8725 5600 c9 -16 18 -30 21 -30 2 0 -2 14 -11 30 -9 17 -18 30 -21
30 -2 0 2 -13 11 -30z"/>
<path d="M9165 5590 c-3 -5 -1 -10 4 -10 6 0 11 5 11 10 0 6 -2 10 -4 10 -3 0
-8 -4 -11 -10z"/>
<path d="M8175 5550 c-16 -17 -51 -45 -77 -61 -51 -33 -53 -36 -37 -59 8 -12
9 -11 5 5 -4 15 4 26 34 44 36 23 121 101 109 101 -3 0 -18 -14 -34 -30z"/>
<path d="M9234 5260 c0 -179 2 -252 3 -162 2 89 2 235 0 325 -1 89 -3 16 -3
-163z"/>
<path d="M9124 5518 c-14 -28 -15 -31 -2 -20 14 11 31 52 22 52 -2 0 -11 -15
-20 -32z"/>
<path d="M10326 5533 c-6 -14 -5 -15 5 -6 7 7 10 15 7 18 -3 3 -9 -2 -12 -12z"/>
<path d="M8770 5520 c6 -11 13 -20 16 -20 2 0 0 9 -6 20 -6 11 -13 20 -16 20
-2 0 0 -9 6 -20z"/>
<path d="M9663 5490 c0 -30 2 -43 4 -27 2 15 2 39 0 55 -2 15 -4 2 -4 -28z"/>
<path d="M2810 5524 c77 -13 70 2 70 -159 l0 -144 -132 -4 -133 -3 135 1 135
0 0 155 0 155 -50 1 c-27 1 -39 0 -25 -2z"/>
<path d="M5618 5513 c6 -2 18 -2 25 0 6 3 1 5 -13 5 -14 0 -19 -2 -12 -5z"/>
<path d="M5783 5513 c9 -2 25 -2 35 0 9 3 1 5 -18 5 -19 0 -27 -2 -17 -5z"/>
<path d="M5878 5513 c17 -2 47 -2 65 0 17 2 3 4 -33 4 -36 0 -50 -2 -32 -4z"/>
<path d="M6048 5513 c6 -2 18 -2 25 0 6 3 1 5 -13 5 -14 0 -19 -2 -12 -5z"/>
<path d="M6118 5513 c7 -3 16 -2 19 1 4 3 -2 6 -13 5 -11 0 -14 -3 -6 -6z"/>
<path d="M8674 5285 c0 -132 2 -185 3 -117 2 68 2 176 0 240 -1 64 -3 9 -3
-123z"/>
<path d="M9973 5513 c9 -2 25 -2 35 0 9 3 1 5 -18 5 -19 0 -27 -2 -17 -5z"/>
<path d="M10203 5513 c20 -2 54 -2 75 0 20 2 3 4 -38 4 -41 0 -58 -2 -37 -4z"/>
<path d="M4752 5480 c0 -14 2 -19 5 -12 2 6 2 18 0 25 -3 6 -5 1 -5 -13z"/>
<path d="M8790 5487 c0 -11 91 -181 102 -192 6 -5 -13 35 -42 90 -55 104 -60
113 -60 102z"/>
<path d="M9080 5440 c-11 -22 -18 -40 -15 -40 2 0 14 18 25 40 11 22 18 40 15
40 -2 0 -14 -18 -25 -40z"/>
<path d="M2523 5395 c0 -44 2 -61 4 -37 2 23 2 59 0 80 -2 20 -4 1 -4 -43z"/>
<path d="M7698 5453 c6 -2 18 -2 25 0 6 3 1 5 -13 5 -14 0 -19 -2 -12 -5z"/>
<path d="M3851 5434 c0 -11 3 -14 6 -6 3 7 2 16 -1 19 -3 4 -6 -2 -5 -13z"/>
<path d="M7766 5437 c3 -10 9 -15 12 -12 3 3 0 11 -7 18 -10 9 -11 8 -5 -6z"/>
<path d="M6969 5413 c-13 -16 -12 -17 4 -4 16 13 21 21 13 21 -2 0 -10 -8 -17
-17z"/>
<path d="M5708 5403 c23 -2 61 -2 85 0 23 2 4 4 -43 4 -47 0 -66 -2 -42 -4z"/>
<path d="M7780 5405 c0 -5 5 -17 10 -25 5 -8 10 -10 10 -5 0 6 -5 17 -10 25
-5 8 -10 11 -10 5z"/>
<path d="M8085 5373 c15 -36 25 -52 25 -41 0 11 -30 78 -35 78 -3 0 2 -17 10
-37z"/>
<path d="M6807 5265 c-184 -179 -236 -222 -248 -204 -7 11 -9 11 -9 -3 0 -42
37 -16 203 142 38 36 98 93 135 128 36 34 61 62 56 62 -5 -1 -66 -57 -137
-125z"/>
<path d="M7694 5195 c0 -110 2 -156 3 -103 2 53 2 143 0 200 -1 57 -3 13 -3
-97z"/>
<path d="M5604 5155 c0 -121 2 -169 3 -107 2 62 2 161 0 220 -1 59 -3 8 -3
-113z"/>
<path d="M9022 5335 c-12 -19 -18 -35 -14 -35 9 0 44 61 39 67 -3 2 -14 -12
-25 -32z"/>
<path d="M1852 5320 c0 -14 2 -19 5 -12 2 6 2 18 0 25 -3 6 -5 1 -5 -13z"/>
<path d="M7811 5325 c0 -5 6 -21 14 -35 8 -14 14 -20 14 -15 0 6 -6 21 -14 35
-8 14 -14 21 -14 15z"/>
<path d="M2546 5282 c10 -18 30 -40 44 -49 20 -13 18 -8 -10 23 -19 22 -39 44
-44 49 -5 6 0 -5 10 -23z"/>
<path d="M3851 5294 c0 -11 3 -14 6 -6 3 7 2 16 -1 19 -3 4 -6 -2 -5 -13z"/>
<path d="M9663 5255 c0 -33 2 -45 4 -27 2 18 2 45 0 60 -2 15 -4 0 -4 -33z"/>
<path d="M8975 5258 l-16 -33 20 25 c20 24 26 40 16 40 -2 0 -12 -15 -20 -32z"/>
<path d="M8131 5275 c0 -5 8 -26 19 -45 11 -19 19 -30 19 -25 0 6 -8 26 -19
45 -11 19 -19 31 -19 25z"/>
<path d="M3620 5245 c13 -14 26 -25 28 -25 3 0 -5 11 -18 25 -13 14 -26 25
-28 25 -3 0 5 -11 18 -25z"/>
<path d="M3814 5244 c-19 -17 -22 -22 -8 -16 20 10 52 42 42 42 -3 0 -18 -12
-34 -26z"/>
<path d="M7840 5255 c0 -5 5 -17 10 -25 5 -8 10 -10 10 -5 0 6 -5 17 -10 25
-5 8 -10 11 -10 5z"/>
<path d="M8919 5243 c6 -12 16 -25 22 -28 20 -13 15 0 -9 25 -22 23 -24 23
-13 3z"/>
<path d="M9954 5230 c1 -13 34 -15 229 -15 l227 -1 -224 3 c-167 3 -226 7
-229 16 -2 6 -3 5 -3 -3z"/>
<path d="M2250 5214 c0 -6 7 -19 16 -30 14 -18 14 -18 3 6 -14 31 -19 36 -19
24z"/>
<path d="M3758 5213 c7 -3 16 -2 19 1 4 3 -2 6 -13 5 -11 0 -14 -3 -6 -6z"/>
<path d="M5252 5213 l227 -3 4 -93 3 -92 2 98 2 97 -232 -2 -233 -3 227 -2z"/>
<path d="M3310 5185 c0 -5 5 -17 10 -25 5 -8 10 -10 10 -5 0 6 -5 17 -10 25
-5 8 -10 11 -10 5z"/>
<path d="M8182 5159 c6 -16 12 -28 14 -26 5 5 -13 57 -20 57 -3 0 0 -14 6 -31z"/>
<path d="M10494 5060 c0 -69 1 -97 3 -62 2 34 2 90 0 125 -2 34 -3 6 -3 -63z"/>
<path d="M1853 5135 c0 -22 2 -30 4 -17 2 12 2 30 0 40 -3 9 -5 -1 -4 -23z"/>
<path d="M4107 5135 c-9 -19 -15 -35 -12 -35 7 0 37 61 33 66 -3 2 -12 -12
-21 -31z"/>
<path d="M7880 5165 c0 -5 5 -17 10 -25 5 -8 10 -10 10 -5 0 6 -5 17 -10 25
-5 8 -10 11 -10 5z"/>
<path d="M11071 5154 c0 -11 3 -14 6 -6 3 7 2 16 -1 19 -3 4 -6 -2 -5 -13z"/>
<path d="M6588 5130 c-22 -39 -15 -39 12 0 12 17 18 30 13 30 -4 0 -16 -14
-25 -30z"/>
<path d="M9664 5050 c0 -52 1 -74 3 -47 2 26 2 68 0 95 -2 26 -3 4 -3 -48z"/>
<path d="M2300 5127 c0 -14 93 -108 135 -137 22 -15 51 -30 65 -34 14 -4 0 7
-30 23 -30 17 -81 59 -112 93 -32 35 -58 59 -58 55z"/>
<path d="M11057 5111 c-4 -17 -3 -21 5 -13 5 5 8 16 6 23 -3 8 -7 3 -11 -10z"/>
<path d="M6434 5030 c0 -52 1 -74 3 -47 2 26 2 68 0 95 -2 26 -3 4 -3 -48z"/>
<path d="M8201 5118 c-1 -11 51 -129 56 -125 2 2 -10 33 -26 68 -16 35 -30 61
-30 57z"/>
<path d="M7911 5095 c0 -5 6 -21 14 -35 8 -14 14 -20 14 -15 0 6 -6 21 -14 35
-8 14 -14 21 -14 15z"/>
<path d="M1860 5087 c0 -23 44 -88 87 -127 26 -24 71 -64 98 -89 28 -26 115
-102 195 -171 80 -68 152 -131 160 -140 8 -8 44 -40 80 -70 36 -30 92 -79 126
-110 33 -30 123 -109 200 -175 76 -66 175 -152 219 -190 44 -39 132 -113 195
-165 63 -52 117 -97 120 -101 21 -25 491 -397 740 -585 192 -145 608 -430 809
-554 40 -25 87 -54 104 -65 18 -12 68 -40 112 -64 44 -24 92 -52 106 -62 15
-10 71 -42 125 -70 55 -29 115 -62 134 -74 45 -27 348 -176 521 -256 162 -74
360 -149 391 -148 13 0 -11 11 -52 23 -219 68 -760 330 -1180 571 -195 112
-546 339 -835 540 -162 113 -517 386 -796 612 -132 107 -445 369 -494 414 -22
20 -94 83 -160 140 -66 57 -122 105 -125 109 -3 3 -34 30 -70 60 -36 30 -69
61 -75 67 -5 7 -24 23 -42 36 -17 13 -58 47 -91 77 -32 30 -72 66 -88 80 -16
14 -89 77 -163 140 -194 167 -290 259 -322 310 -16 25 -29 41 -29 37z"/>
<path d="M3416 5033 c28 -29 50 -54 48 -56 -2 -2 2 -4 9 -4 6 0 21 -4 32 -8
11 -4 4 3 -15 15 -19 12 -55 41 -80 63 -38 35 -37 33 6 -10z"/>
<path d="M4040 5045 c-24 -25 -42 -45 -39 -45 3 0 25 20 49 45 24 25 42 45 39
45 -3 0 -25 -20 -49 -45z"/>
<path d="M11014 5038 l-19 -23 23 19 c21 18 27 26 19 26 -2 0 -12 -10 -23 -22z"/>
<path d="M10951 4975 c-21 -19 -44 -35 -50 -35 -6 0 -10 -4 -8 -9 1 -4 -19
-26 -44 -47 -25 -22 -86 -75 -136 -119 -49 -44 -100 -89 -114 -101 -13 -11
-62 -54 -109 -95 -47 -41 -108 -93 -135 -116 -28 -23 -84 -70 -125 -105 -42
-35 -98 -81 -125 -103 -27 -22 -62 -52 -79 -66 -17 -14 -44 -37 -60 -50 -17
-13 -48 -40 -70 -60 -23 -20 -84 -69 -136 -110 -52 -40 -97 -76 -100 -79 -5
-6 -282 -229 -350 -282 -19 -15 -71 -56 -115 -92 -44 -36 -85 -66 -92 -66 -7
0 -16 -6 -20 -13 -15 -24 -105 -87 -116 -80 -5 3 -7 1 -4 -4 6 -10 -302 -246
-440 -338 -38 -25 -106 -72 -153 -105 -47 -34 -142 -99 -212 -146 -71 -47
-128 -88 -128 -90 0 -3 6 -2 13 2 15 9 256 172 352 239 39 26 106 73 150 104
246 170 953 719 1365 1060 63 52 153 127 200 165 283 235 901 776 886 776 -3
0 -23 -16 -45 -35z"/>
<path d="M5882 4965 c0 -16 2 -22 5 -12 2 9 2 23 0 30 -3 6 -5 -1 -5 -18z"/>
<path d="M3940 4970 c-9 -6 -10 -10 -3 -10 6 0 15 5 18 10 8 12 4 12 -15 0z"/>
<path d="M7960 4973 c0 -15 18 -35 27 -32 5 2 1 12 -9 22 -10 9 -18 14 -18 10z"/>
<path d="M1431 4952 c-1 -26 37 -112 50 -112 4 0 -1 16 -13 36 -11 19 -24 50
-28 67 -6 24 -8 26 -9 9z"/>
<path d="M8270 4951 c0 -5 -10 -12 -22 -14 -20 -4 -20 -4 4 -6 28 -1 45 13 28
24 -5 3 -10 2 -10 -4z"/>
<path d="M3868 4943 c7 -3 16 -2 19 1 4 3 -2 6 -13 5 -11 0 -14 -3 -6 -6z"/>
<path d="M4290 4940 c0 -6 7 -10 15 -10 8 0 15 2 15 4 0 2 -7 6 -15 10 -8 3
-15 1 -15 -4z"/>
<path d="M3778 4933 c12 -2 30 -2 40 0 9 3 -1 5 -23 4 -22 0 -30 -2 -17 -4z"/>
<path d="M8113 4933 c9 -2 25 -2 35 0 9 3 1 5 -18 5 -19 0 -27 -2 -17 -5z"/>
<path d="M10428 4933 c7 -3 16 -2 19 1 4 3 -2 6 -13 5 -11 0 -14 -3 -6 -6z"/>
<path d="M11425 4851 c-11 -15 -73 -74 -137 -130 -65 -57 -118 -105 -118 -108
0 -5 90 71 159 134 20 18 39 33 43 33 9 0 82 89 77 94 -2 3 -13 -8 -24 -23z"/>
<path d="M1565 4754 c44 -43 103 -99 130 -124 95 -85 220 -196 254 -226 58
-49 234 -205 266 -235 17 -15 75 -67 130 -115 55 -47 138 -121 185 -164 47
-43 106 -95 131 -116 25 -22 100 -86 165 -144 66 -58 178 -155 249 -215 72
-60 139 -117 150 -127 11 -10 81 -67 156 -126 75 -59 164 -129 199 -157 35
-27 109 -85 164 -127 56 -43 106 -81 111 -85 39 -31 175 -132 200 -147 16 -11
34 -23 40 -28 32 -28 457 -323 519 -360 68 -41 289 -176 316 -194 88 -55 260
-148 260 -140 0 2 -50 32 -112 66 -99 56 -196 114 -308 185 -19 13 -86 55
-148 94 -604 385 -1430 1034 -2152 1691 -52 48 -156 140 -230 205 -74 65 -207
181 -295 258 -191 168 -328 291 -370 332 -16 17 -43 41 -60 55 -16 13 6 -12
50 -56z"/>
<path d="M11100 4557 c-31 -28 -140 -126 -243 -216 -103 -90 -187 -166 -187
-169 0 -4 100 77 131 107 37 36 109 100 179 160 119 101 193 172 178 171 -2 0
-28 -24 -58 -53z"/>
<path d="M4018 4463 c12 -2 32 -2 45 0 12 2 2 4 -23 4 -25 0 -35 -2 -22 -4z"/>
<path d="M4580 4460 c-9 -6 -10 -10 -3 -10 6 0 15 5 18 10 8 12 4 12 -15 0z"/>
<path d="M4692 4460 c14 -4 32 -11 40 -15 7 -3 4 1 -6 9 -11 9 -29 16 -40 15
-17 -1 -16 -2 6 -9z"/>
<path d="M5347 4463 c14 -3 23 -13 26 -31 4 -24 4 -24 6 6 1 29 -2 32 -26 31
-23 -1 -24 -2 -6 -6z"/>
<path d="M5664 4456 c-3 -8 -1 -23 6 -33 10 -16 10 -15 5 5 -5 17 -1 24 17 31
l23 10 -23 0 c-12 1 -25 -5 -28 -13z"/>
<path d="M6257 4463 c-10 -9 -9 -73 1 -73 4 0 6 15 4 34 -3 30 -1 35 20 39 20
4 21 4 2 6 -11 0 -24 -2 -27 -6z"/>
<path d="M6453 4463 c9 -2 23 -2 30 0 6 3 -1 5 -18 5 -16 0 -22 -2 -12 -5z"/>
<path d="M6518 4463 c18 -4 23 -10 20 -31 -2 -22 -9 -28 -38 -33 l-35 -6 37
-2 c32 -1 39 3 44 24 9 35 -2 55 -28 54 l-23 -2 23 -4z"/>
<path d="M7269 4461 c12 -8 13 -14 3 -36 -16 -36 -14 -46 3 -15 20 35 19 60
-2 60 -15 0 -15 -2 -4 -9z"/>
<path d="M7686 4463 c-11 -11 -37 -75 -32 -80 2 -2 9 11 16 29 7 18 20 39 28
46 9 6 11 12 6 12 -6 0 -14 -3 -18 -7z"/>
<path d="M7747 4460 c13 -5 29 -24 38 -42 10 -23 13 -25 9 -8 -8 32 -33 60
-53 59 -11 0 -8 -3 6 -9z"/>
<path d="M8298 4463 c18 -2 45 -2 60 0 15 2 0 4 -33 4 -33 0 -45 -2 -27 -4z"/>
<path d="M8867 4463 c18 -2 50 -2 70 0 21 2 7 4 -32 4 -38 0 -55 -2 -38 -4z"/>
<path d="M3951 4434 c-12 -15 -21 -32 -21 -38 0 -6 9 3 19 20 11 18 25 34 33
37 8 3 9 6 1 6 -6 1 -21 -11 -32 -25z"/>
<path d="M4138 4444 c14 -9 21 -22 18 -31 -3 -8 -1 -11 4 -8 6 3 10 11 10 17
0 12 -30 37 -45 38 -5 0 1 -7 13 -16z"/>
<path d="M5134 4325 c0 -77 2 -107 3 -67 2 40 2 103 0 140 -2 37 -3 4 -3 -73z"/>
<path d="M5945 4450 c3 -5 8 -10 11 -10 2 0 4 5 4 10 0 6 -5 10 -11 10 -5 0
-7 -4 -4 -10z"/>
<path d="M7010 4424 c-7 -19 -10 -38 -7 -40 3 -3 8 8 12 25 4 17 14 35 23 41
16 9 16 9 0 10 -10 0 -21 -13 -28 -36z"/>
<path d="M7200 4450 c0 -5 7 -7 15 -4 8 4 15 8 15 10 0 2 -7 4 -15 4 -8 0 -15
-4 -15 -10z"/>
<path d="M8413 4449 c10 -6 27 -25 38 -42 10 -18 19 -27 19 -20 0 16 -49 73
-63 73 -7 0 -4 -5 6 -11z"/>
<path d="M8794 4335 c0 -71 1 -99 3 -62 2 37 2 96 0 130 -2 34 -3 4 -3 -68z"/>
<path d="M4530 4430 c-14 -10 -22 -21 -19 -24 3 -3 16 5 29 19 28 30 24 32
-10 5z"/>
<path d="M6912 4440 c0 -8 8 -37 18 -65 10 -27 18 -43 18 -35 0 8 -8 38 -18
65 -10 28 -18 43 -18 35z"/>
<path d="M9032 4425 c0 -16 2 -22 5 -12 2 9 2 23 0 30 -3 6 -5 -1 -5 -18z"/>
<path d="M4750 4436 c0 -2 8 -10 18 -17 15 -13 16 -12 3 4 -13 16 -21 21 -21
13z"/>
<path d="M7102 4430 c0 -8 6 -31 13 -50 7 -19 13 -28 13 -20 0 8 -6 31 -13 50
-7 19 -13 28 -13 20z"/>
<path d="M7183 4412 c-3 -12 -9 -19 -14 -16 -5 3 -6 -1 -4 -8 3 -8 -1 -31 -9
-53 -12 -32 -15 -35 -15 -16 -1 13 -4 22 -7 19 -3 -3 -2 -22 2 -42 6 -36 7
-36 34 46 16 46 26 85 24 88 -3 2 -7 -6 -11 -18z"/>
<path d="M4016 4391 c-13 -14 -14 -21 -5 -27 7 -4 10 -3 6 3 -13 20 22 38 51
26 56 -22 66 -24 32 -4 -44 25 -62 26 -84 2z"/>
<path d="M6841 4400 c0 -8 4 -22 9 -30 12 -18 12 -2 0 25 -6 13 -9 15 -9 5z"/>
<path d="M4598 4389 c-10 -5 -23 -20 -29 -32 -10 -18 -6 -17 22 8 19 17 36 31
38 33 2 1 0 2 -5 2 -5 0 -17 -5 -26 -11z"/>
<path d="M4675 4388 c11 -6 28 -21 37 -32 10 -12 17 -16 18 -9 0 14 -48 53
-64 53 -6 0 -2 -6 9 -12z"/>
<path d="M4786 4387 c3 -10 9 -15 12 -12 3 3 0 11 -7 18 -10 9 -11 8 -5 -6z"/>
<path d="M5273 4393 c9 -2 23 -2 30 0 6 3 -1 5 -18 5 -16 0 -22 -2 -12 -5z"/>
<path d="M5727 4393 l32 -4 4 -102 3 -102 2 108 2 107 -37 -2 c-37 -1 -37 -1
-6 -5z"/>
<path d="M5842 4313 l2 -88 3 82 4 82 42 4 42 4 -47 1 -48 2 2 -87z"/>
<path d="M6322 4393 l27 -4 4 -107 3 -107 2 113 2 112 -32 -1 c-30 -2 -31 -2
-6 -6z"/>
<path d="M4495 4379 c-4 -6 -5 -12 -2 -15 2 -3 7 2 10 11 7 17 1 20 -8 4z"/>
<path d="M6430 4274 l0 -116 -35 4 c-19 2 -35 0 -35 -4 0 -4 18 -8 40 -8 l40
0 0 120 c0 66 -2 120 -5 120 -3 0 -5 -52 -5 -116z"/>
<path d="M8272 4353 c3 -38 3 -38 48 -39 l45 -1 -42 4 c-40 4 -43 6 -43 33 0
19 6 30 18 33 12 3 11 5 -6 6 -21 1 -23 -3 -20 -36z"/>
<path d="M8382 4371 c9 -15 9 -23 -2 -38 -13 -17 -13 -17 4 -2 18 17 15 59 -5
59 -5 0 -4 -9 3 -19z"/>
<path d="M7627 4328 c-9 -23 -15 -43 -13 -45 2 -2 11 15 20 38 9 23 15 43 13
45 -2 2 -11 -15 -20 -38z"/>
<path d="M7717 4364 c-4 -4 -7 -12 -7 -18 0 -6 5 -4 10 4 9 13 10 13 10 -1 0
-8 7 -24 15 -35 14 -17 14 -17 3 11 -15 38 -23 47 -31 39z"/>
<path d="M8870 4358 c0 -16 9 -18 68 -16 l67 2 -60 3 c-33 2 -63 10 -67 16 -5
8 -8 6 -8 -5z"/>
<path d="M7810 4355 c0 -5 5 -17 10 -25 5 -8 10 -10 10 -5 0 6 -5 17 -10 25
-5 8 -10 11 -10 5z"/>
<path d="M4110 4328 c54 -27 70 -62 52 -111 -10 -29 -10 -30 3 -13 19 26 19
66 -1 94 -16 23 -64 52 -86 52 -7 0 8 -10 32 -22z"/>
<path d="M5210 4338 c0 -5 30 -8 67 -8 36 0 64 2 62 5 -9 8 -129 10 -129 3z"/>
<path d="M4812 4310 c0 -19 2 -27 5 -17 2 9 2 25 0 35 -3 9 -5 1 -5 -18z"/>
<path d="M9012 4315 c0 -16 2 -22 5 -12 2 9 2 23 0 30 -3 6 -5 -1 -5 -18z"/>
<path d="M3947 4317 c6 -11 93 -50 98 -45 2 2 -21 14 -50 28 -29 14 -51 21
-48 17z"/>
<path d="M4482 4300 c0 -19 2 -27 5 -17 2 9 2 25 0 35 -3 9 -5 1 -5 -18z"/>
<path d="M4732 4305 c0 -16 2 -22 5 -12 2 9 2 23 0 30 -3 6 -5 -1 -5 -18z"/>
<path d="M7042 4293 c-6 -20 -9 -39 -7 -41 2 -2 7 9 11 24 l7 29 14 -30 13
-30 -6 35 c-9 51 -19 55 -32 13z"/>
<path d="M4551 4304 c0 -11 3 -14 6 -6 3 7 2 16 -1 19 -3 4 -6 -2 -5 -13z"/>
<path d="M6951 4310 c0 -8 3 -21 8 -28 6 -11 10 -10 15 4 3 9 4 19 1 22 -3 3
-5 -1 -6 -9 0 -8 -4 -6 -9 6 -6 13 -9 15 -9 5z"/>
<path d="M7206 4254 c-14 -37 -24 -69 -22 -71 2 -2 15 26 30 63 14 37 24 69
22 71 -2 2 -15 -26 -30 -63z"/>
<path d="M7831 4305 c1 -19 18 -51 18 -35 0 8 -4 22 -9 30 -5 8 -9 11 -9 5z"/>
<path d="M8426 4274 c-23 -20 -26 -28 -16 -37 10 -9 11 -9 6 0 -3 6 -1 15 6
20 14 8 43 43 37 43 -2 0 -17 -12 -33 -26z"/>
<path d="M7740 4280 l-25 -8 28 -1 c15 -1 27 4 27 9 0 6 -1 10 -2 9 -2 -1 -14
-5 -28 -9z"/>
<path d="M4560 4273 c0 -5 12 -20 28 -34 l27 -24 -25 30 c-14 17 -26 32 -27
34 -2 2 -3 0 -3 -6z"/>
<path d="M7680 4270 c0 -5 5 -10 11 -10 5 0 7 5 4 10 -3 6 -8 10 -11 10 -2 0
-4 -4 -4 -10z"/>
<path d="M8870 4245 c0 -27 4 -35 18 -34 10 0 12 3 5 6 -7 2 -13 15 -13 28 0
22 5 24 53 28 l52 3 -57 2 -58 2 0 -35z"/>
<path d="M4073 4259 c9 -5 17 -15 17 -20 0 -6 -4 -7 -10 -4 -5 3 -10 2 -10 -4
0 -5 -17 -12 -37 -14 -34 -4 -33 -4 6 -3 49 1 79 28 51 46 -8 5 -19 10 -25 10
-5 -1 -2 -5 8 -11z"/>
<path d="M4709 4250 c-8 -11 -33 -24 -55 -30 l-39 -10 39 5 c36 4 87 37 75 49
-2 3 -11 -4 -20 -14z"/>
<path d="M5212 4218 l2 -53 3 47 c4 42 7 47 31 51 24 4 24 4 -5 6 l-33 1 2
-52z"/>
<path d="M8286 4252 c-3 -5 5 -8 16 -8 15 1 29 -12 47 -43 15 -25 32 -46 40
-49 9 -3 8 1 -3 14 -8 11 -26 35 -39 54 -23 35 -50 49 -61 32z"/>
<path d="M4490 4244 c0 -6 7 -19 15 -30 8 -10 14 -14 14 -9 0 6 -6 19 -14 29
-8 11 -15 15 -15 10z"/>
<path d="M7851 4247 c-1 -4 6 -24 14 -44 20 -48 20 -51 -17 -56 -32 -4 -32 -4
5 -5 29 -2 37 2 36 16 -1 18 -37 103 -38 89z"/>
<path d="M3931 4236 c2 -2 18 -6 34 -10 22 -5 26 -4 15 4 -14 9 -59 15 -49 6z"/>
<path d="M7011 4209 c-6 -18 -9 -34 -7 -36 2 -2 9 10 15 28 6 18 9 34 7 36 -2
2 -9 -10 -15 -28z"/>
<path d="M7081 4224 c0 -11 3 -14 6 -6 3 7 2 16 -1 19 -3 4 -6 -2 -5 -13z"/>
<path d="M7575 4201 c-17 -39 -14 -61 8 -61 7 0 6 4 -3 10 -12 8 -12 14 3 46
10 20 16 38 14 40 -2 2 -12 -13 -22 -35z"/>
<path d="M8943 4223 c9 -2 23 -2 30 0 6 3 -1 5 -18 5 -16 0 -22 -2 -12 -5z"/>
<path d="M8270 4191 c0 -27 -4 -30 -37 -34 l-38 -4 43 -1 c42 -2 42 -2 42 33
0 19 -2 35 -5 35 -3 0 -5 -13 -5 -29z"/>
<path d="M8435 4196 c10 -14 19 -26 22 -26 7 0 -17 39 -28 46 -6 3 -3 -5 6
-20z"/>
<path d="M4741 4182 c-24 -19 -51 -29 -90 -33 l-56 -6 51 -2 c42 -1 58 4 92
29 23 17 42 32 42 35 0 8 -2 6 -39 -23z"/>
<path d="M7657 4203 c-3 -4 26 -7 63 -5 59 3 69 1 74 -15 4 -15 5 -15 3 2 -2
17 -11 20 -69 23 -36 2 -69 -1 -71 -5z"/>
<path d="M3925 4183 c11 -12 34 -24 50 -27 l30 -6 -30 11 c-16 6 -39 19 -50
27 l-20 16 20 -21z"/>
<path d="M6910 4191 c0 -6 4 -13 10 -16 6 -3 7 1 4 9 -7 18 -14 21 -14 7z"/>
<path d="M7090 4198 c0 -4 4 -19 10 -33 8 -22 15 -26 42 -23 17 2 33 9 34 16
1 7 0 8 -3 2 -10 -21 -52 -10 -67 18 -8 15 -15 24 -16 20z"/>
<path d="M8191 4184 c0 -11 3 -14 6 -6 3 7 2 16 -1 19 -3 4 -6 -2 -5 -13z"/>
<path d="M4531 4187 c2 -1 13 -9 24 -17 19 -14 19 -14 6 3 -7 9 -18 17 -24 17
-6 0 -8 -1 -6 -3z"/>
<path d="M4110 4160 c-9 -6 -10 -10 -3 -10 6 0 15 5 18 10 8 12 4 12 -15 0z"/>
<path d="M7635 4160 c-3 -5 -1 -10 4 -10 6 0 11 5 11 10 0 6 -2 10 -4 10 -3 0
-8 -4 -11 -10z"/>
<path d="M10584 4106 c-38 -33 -130 -113 -204 -176 -74 -63 -148 -128 -165
-144 -41 -39 73 53 160 129 39 34 102 88 140 120 98 81 147 126 143 129 -1 2
-35 -24 -74 -58z"/>
<path d="M6938 4148 c6 -6 18 -8 28 -6 14 3 12 5 -9 10 -19 3 -25 2 -19 -4z"/>
<path d="M8435 4150 l-30 -8 27 -1 c15 0 30 4 33 9 3 6 5 9 3 9 -2 -1 -16 -5
-33 -9z"/>
<path d="M8927 4153 c18 -2 50 -2 70 0 21 2 7 4 -32 4 -38 0 -55 -2 -38 -4z"/>
<path d="M4043 4143 c9 -2 23 -2 30 0 6 3 -1 5 -18 5 -16 0 -22 -2 -12 -5z"/>
<path d="M10130 3718 c-25 -21 -112 -95 -193 -164 -82 -68 -145 -124 -141
-124 8 0 135 101 162 129 9 10 44 39 77 66 32 26 65 53 71 60 7 6 26 24 44 39
18 15 31 28 29 30 -2 2 -24 -14 -49 -36z"/>
<path d="M9671 3336 c-7 -8 -100 -83 -208 -168 -108 -84 -210 -166 -227 -181
-44 -40 108 73 240 179 61 49 129 103 150 119 68 54 79 64 68 65 -6 0 -17 -6
-23 -14z"/>
<path d="M900 3273 c0 -13 78 -78 86 -70 3 2 -11 15 -30 27 -20 12 -40 29 -46
38 -5 9 -10 12 -10 5z"/>
<path d="M920 3278 c13 -14 70 -38 70 -29 0 5 -8 11 -17 14 -10 2 -27 8 -38
12 -11 5 -18 6 -15 3z"/>
<path d="M11750 3270 c-11 -8 -8 -9 13 -4 41 9 33 -1 -33 -41 -33 -20 -62 -41
-66 -46 -3 -6 25 10 62 33 37 24 69 49 72 56 5 15 -27 16 -48 2z"/>
<path d="M11658 3229 c-21 -11 -38 -22 -38 -24 0 -5 79 32 89 41 12 11 -18 1
-51 -17z"/>
<path d="M1000 3235 c0 -5 56 -35 65 -35 3 0 4 4 1 9 -6 10 -66 33 -66 26z"/>
<path d="M1000 3191 c0 -6 4 -11 8 -11 7 0 83 -55 142 -103 8 -7 43 -31 77
-53 35 -22 60 -44 55 -48 -4 -4 -2 -6 4 -4 9 3 199 -124 214 -143 3 -3 16 -11
30 -18 24 -12 24 -12 5 4 -11 9 -123 90 -250 181 -126 90 -242 173 -257 185
-16 11 -28 16 -28 10z"/>
<path d="M1100 3185 c14 -8 30 -14 35 -14 6 0 -1 6 -15 14 -14 8 -29 14 -35
14 -5 0 1 -6 15 -14z"/>
<path d="M11573 3190 c-34 -14 -28 -21 7 -9 17 6 30 13 30 15 0 6 -12 4 -37
-6z"/>
<path d="M1190 3145 c14 -8 30 -14 35 -14 6 0 -1 6 -15 14 -14 8 -29 14 -35
14 -5 0 1 -6 15 -14z"/>
<path d="M11460 3140 c-8 -5 -10 -10 -5 -10 6 0 17 5 25 10 8 5 11 10 5 10 -5
0 -17 -5 -25 -10z"/>
<path d="M11599 3133 c-13 -16 -12 -17 4 -4 16 13 21 21 13 21 -2 0 -10 -8
-17 -17z"/>
<path d="M11415 3120 c-3 -6 1 -7 9 -4 18 7 21 14 7 14 -6 0 -13 -4 -16 -10z"/>
<path d="M1290 3100 c19 -11 40 -19 45 -19 6 0 -6 8 -25 19 -19 11 -39 19 -45
19 -5 0 6 -8 25 -19z"/>
<path d="M11533 3089 c-24 -17 -43 -32 -43 -35 0 -3 20 9 45 26 25 17 45 33
45 35 0 7 -2 6 -47 -26z"/>
<path d="M11350 3090 c-19 -11 -30 -19 -25 -19 6 0 26 8 45 19 19 11 31 19 25
19 -5 0 -26 -8 -45 -19z"/>
<path d="M11260 3050 c-19 -11 -30 -19 -25 -19 6 0 26 8 45 19 19 11 31 19 25
19 -5 0 -26 -8 -45 -19z"/>
<path d="M11443 3024 l-28 -26 33 22 c29 20 39 30 28 30 -3 0 -18 -12 -33 -26z"/>
<path d="M1441 3036 c10 -9 69 -36 69 -32 0 6 -55 36 -66 36 -4 0 -5 -2 -3 -4z"/>
<path d="M1910 3030 c-9 -6 -10 -10 -3 -10 6 0 15 5 18 10 8 12 4 12 -15 0z"/>
<path d="M11180 3010 c-9 -6 -10 -10 -3 -10 6 0 15 5 18 10 8 12 4 12 -15 0z"/>
<path d="M1560 2976 c25 -14 50 -25 55 -26 16 0 -48 37 -76 44 -13 4 -4 -5 21
-18z"/>
<path d="M11350 2959 c-78 -57 -86 -69 -13 -20 34 22 65 45 68 51 9 15 5 12
-55 -31z"/>
<path d="M11060 2955 c-36 -19 -60 -34 -55 -34 6 0 39 15 75 34 36 19 61 34
55 34 -5 0 -39 -15 -75 -34z"/>
<path d="M9057 2855 c-75 -58 -206 -154 -290 -215 -164 -119 -210 -155 -187
-144 25 12 102 65 157 108 28 23 86 66 129 96 43 30 86 62 95 70 8 8 51 41 95
73 84 61 152 116 144 117 -3 0 -67 -47 -143 -105z"/>
<path d="M1631 2946 c8 -9 99 -45 99 -40 0 2 -21 14 -46 24 -45 20 -62 24 -53
16z"/>
<path d="M10852 2858 c-68 -33 -121 -62 -119 -65 3 -2 63 25 133 61 71 36 125
65 119 65 -5 0 -65 -27 -133 -61z"/>
<path d="M1741 2896 c10 -9 69 -36 69 -32 0 6 -55 36 -66 36 -4 0 -5 -2 -3 -4z"/>
<path d="M11235 2874 c-18 -16 -22 -22 -9 -15 18 9 53 42 43 41 -2 -1 -17 -12
-34 -26z"/>
<path d="M1880 2825 c25 -13 50 -24 55 -24 6 0 -10 11 -35 24 -25 13 -49 24
-55 24 -5 0 10 -11 35 -24z"/>
<path d="M11179 2833 c-13 -16 -12 -17 4 -4 16 13 21 21 13 21 -2 0 -10 -8
-17 -17z"/>
<path d="M11130 2799 c-22 -18 -22 -19 -3 -10 12 6 25 16 28 21 9 15 3 12 -25
-11z"/>
<path d="M1560 2797 c0 -9 121 -100 125 -95 3 3 -10 15 -28 28 -17 13 -47 35
-64 48 -18 13 -33 22 -33 19z"/>
<path d="M1970 2786 c0 -2 7 -7 16 -10 8 -3 12 -2 9 4 -6 10 -25 14 -25 6z"/>
<path d="M10665 2764 c-22 -13 -35 -24 -30 -24 6 0 28 11 50 25 22 13 36 24
30 24 -5 -1 -28 -12 -50 -25z"/>
<path d="M11079 2763 c-13 -16 -12 -17 4 -4 16 13 21 21 13 21 -2 0 -10 -8
-17 -17z"/>
<path d="M2100 2720 c41 -21 80 -39 85 -39 6 0 -24 18 -65 39 -41 21 -79 39
-85 39 -5 0 24 -18 65 -39z"/>
<path d="M10986 2700 c-38 -27 -71 -52 -75 -57 -8 -9 44 23 92 58 21 15 44 30
50 32 7 2 10 7 7 10 -3 3 -36 -17 -74 -43z"/>
<path d="M10600 2730 c-9 -6 -10 -10 -3 -10 6 0 15 5 18 10 8 12 4 12 -15 0z"/>
<path d="M10535 2700 c-3 -6 1 -7 9 -4 18 7 21 14 7 14 -6 0 -13 -4 -16 -10z"/>
<path d="M1711 2682 c7 -11 16 -19 20 -16 4 2 9 -2 12 -8 2 -7 7 -10 11 -7 4
4 -7 17 -24 29 -31 22 -31 22 -19 2z"/>
<path d="M10495 2680 c-3 -6 1 -7 9 -4 18 7 21 14 7 14 -6 0 -13 -4 -16 -10z"/>
<path d="M2207 2669 c7 -7 15 -10 18 -7 3 3 -2 9 -12 12 -14 6 -15 5 -6 -5z"/>
<path d="M10408 2639 c-32 -16 -58 -32 -58 -34 0 -5 119 52 129 61 13 12 -22
-1 -71 -27z"/>
<path d="M2241 2656 c10 -9 69 -36 69 -32 0 6 -55 36 -66 36 -4 0 -5 -2 -3 -4z"/>
<path d="M7994 2647 c-22 -12 -50 -30 -119 -77 -22 -14 -68 -43 -102 -64 -35
-21 -63 -40 -63 -43 0 -5 20 7 170 100 94 58 150 96 140 97 -3 0 -15 -6 -26
-13z"/>
<path d="M1780 2637 c13 -13 532 -361 570 -382 10 -5 12 -5 5 2 -10 10 -545
370 -575 387 -13 8 -13 7 0 -7z"/>
<path d="M10825 2589 c-38 -27 -107 -73 -152 -104 -46 -30 -83 -57 -83 -60 0
-8 23 6 96 57 34 24 94 65 135 93 41 27 76 51 78 52 2 2 2 5 0 7 -2 2 -35 -18
-74 -45z"/>
<path d="M2320 2616 c0 -2 7 -7 16 -10 8 -3 12 -2 9 4 -6 10 -25 14 -25 6z"/>
<path d="M10198 2534 c-60 -30 -108 -56 -108 -59 0 -5 219 102 229 111 15 14
-29 -5 -121 -52z"/>
<path d="M2401 2576 c10 -9 129 -66 129 -61 0 5 -116 65 -126 65 -4 0 -5 -2
-3 -4z"/>
<path d="M2700 2425 c80 -41 150 -74 155 -74 6 0 -55 33 -135 74 -80 41 -149
74 -155 74 -5 0 55 -33 135 -74z"/>
<path d="M8388 2377 c-147 -99 -214 -148 -168 -122 38 22 340 226 340 230 0 8
2 9 -172 -108z"/>
<path d="M10044 2454 c-18 -14 -18 -14 6 -3 31 14 36 19 24 19 -6 0 -19 -7
-30 -16z"/>
<path d="M7654 2438 c-23 -13 -52 -31 -65 -41 -13 -10 3 -4 36 14 56 30 85 49
74 49 -2 0 -23 -10 -45 -22z"/>
<path d="M9978 2424 c-39 -21 -35 -28 5 -8 37 19 44 24 31 24 -5 -1 -21 -8
-36 -16z"/>
<path d="M10535 2394 c-51 -34 -69 -52 -29 -29 35 20 82 54 74 55 -3 0 -23
-12 -45 -26z"/>
<path d="M9890 2380 c0 -5 7 -7 15 -4 8 4 15 8 15 10 0 2 -7 4 -15 4 -8 0 -15
-4 -15 -10z"/>
<path d="M7485 2340 c-38 -21 -135 -73 -215 -113 -80 -41 -167 -87 -195 -101
-27 -14 -108 -53 -180 -86 -175 -81 -197 -92 -165 -84 97 26 882 427 828 424
-2 0 -34 -18 -73 -40z"/>
<path d="M9768 2319 c-43 -21 -78 -41 -78 -44 0 -5 159 72 169 81 14 13 -25
-2 -91 -37z"/>
<path d="M2870 2345 c0 -3 68 -39 150 -80 83 -41 150 -73 150 -70 0 3 -60 35
-132 72 -147 75 -168 84 -168 78z"/>
<path d="M10372 2286 c-85 -58 -128 -91 -92 -71 35 20 190 126 190 130 0 7 2
9 -98 -59z"/>
<path d="M9644 2254 c-18 -14 -18 -14 6 -3 31 14 36 19 24 19 -6 0 -19 -7 -30
-16z"/>
<path d="M2379 2236 c8 -10 33 -26 55 -37 40 -20 40 -20 17 -1 -14 11 -38 28
-55 38 -29 17 -30 17 -17 0z"/>
<path d="M8011 2134 c-102 -63 -234 -143 -293 -176 -60 -33 -107 -62 -104 -65
5 -5 203 106 306 172 36 23 108 68 160 100 85 52 133 86 120 85 -3 -1 -88 -53
-189 -116z"/>
<path d="M9575 2220 c-3 -6 1 -7 9 -4 18 7 21 14 7 14 -6 0 -13 -4 -16 -10z"/>
<path d="M9358 2111 c-80 -42 -150 -80 -155 -85 -9 -9 282 136 307 153 40 28
-18 1 -152 -68z"/>
<path d="M10125 2124 c-91 -61 -144 -100 -105 -79 23 13 194 127 205 136 23
22 -8 4 -100 -57z"/>
<path d="M2480 2177 c0 -5 136 -98 172 -117 16 -9 42 -28 58 -43 29 -28 40
-33 40 -18 0 5 -55 44 -122 87 -145 95 -148 96 -148 91z"/>
<path d="M3200 2176 c0 -2 7 -7 16 -10 8 -3 12 -2 9 4 -6 10 -25 14 -25 6z"/>
<path d="M3280 2136 c0 -2 7 -7 16 -10 8 -3 12 -2 9 4 -6 10 -25 14 -25 6z"/>
<path d="M3361 2096 c2 -2 15 -9 29 -15 24 -11 24 -11 6 3 -16 13 -49 24 -35
12z"/>
<path d="M3440 2056 c0 -2 7 -7 16 -10 8 -3 12 -2 9 4 -6 10 -25 14 -25 6z"/>
<path d="M3536 2005 c10 -8 23 -15 28 -15 6 0 1 7 -10 15 -10 8 -23 15 -28 15
-6 0 -1 -7 10 -15z"/>
<path d="M9118 1989 c-21 -11 -38 -22 -38 -24 0 -5 79 32 89 41 12 11 -18 1
-51 -17z"/>
<path d="M9903 1979 c-35 -22 -46 -37 -15 -20 22 13 58 40 52 41 -3 0 -20 -10
-37 -21z"/>
<path d="M2797 1972 c12 -11 19 -23 15 -27 -4 -5 -1 -5 6 -1 17 10 16 11 -15
30 l-28 17 22 -19z"/>
<path d="M3614 1966 c11 -9 24 -16 30 -16 12 0 7 5 -24 19 -24 11 -24 11 -6
-3z"/>
<path d="M9018 1939 c-21 -11 -38 -21 -38 -24 0 -7 49 13 73 30 29 20 10 17
-35 -6z"/>
<path d="M2840 1943 c0 -4 17 -17 38 -28 72 -38 167 -98 178 -113 6 -9 13 -11
17 -5 3 5 -38 36 -91 68 -53 32 -107 65 -119 73 -13 8 -23 10 -23 5z"/>
<path d="M6660 1935 c-14 -8 -20 -14 -15 -14 6 0 21 6 35 14 14 8 21 14 15 14
-5 0 -21 -6 -35 -14z"/>
<path d="M3680 1936 c0 -2 7 -7 16 -10 8 -3 12 -2 9 4 -6 10 -25 14 -25 6z"/>
<path d="M9803 1919 c-35 -22 -46 -37 -15 -20 22 13 58 40 52 41 -3 0 -20 -10
-37 -21z"/>
<path d="M5205 1913 c6 -6 37 -26 70 -44 33 -18 56 -28 50 -22 -5 5 -37 25
-70 43 -33 18 -55 28 -50 23z"/>
<path d="M6540 1895 c-41 -13 -69 -24 -61 -24 18 -1 151 38 151 44 0 7 -7 5
-90 -20z"/>
<path d="M3796 1875 c10 -8 23 -15 28 -15 6 0 1 7 -10 15 -10 8 -23 15 -28 15
-6 0 -1 -7 10 -15z"/>
<path d="M7455 1814 c-159 -87 -528 -266 -638 -311 -21 -9 -36 -18 -33 -20 9
-9 409 179 591 277 28 15 89 48 138 74 73 40 98 57 85 56 -2 0 -66 -35 -143
-76z"/>
<path d="M8882 1870 c-41 -22 -53 -34 -27 -24 28 11 82 44 70 43 -5 0 -25 -9
-43 -19z"/>
<path d="M9734 1874 c-18 -14 -18 -15 4 -4 12 6 22 13 22 15 0 8 -5 6 -26 -11z"/>
<path d="M6423 1863 c9 -2 23 -2 30 0 6 3 -1 5 -18 5 -16 0 -22 -2 -12 -5z"/>
<path d="M3840 1856 c0 -2 7 -7 16 -10 8 -3 12 -2 9 4 -6 10 -25 14 -25 6z"/>
<path d="M9613 1802 c-78 -49 -140 -93 -93 -67 50 28 190 117 190 121 0 6 1 7
-97 -54z"/>
<path d="M3880 1836 c0 -2 7 -7 16 -10 8 -3 12 -2 9 4 -6 10 -25 14 -25 6z"/>
<path d="M5340 1836 c0 -5 79 -46 88 -46 4 0 -11 12 -33 25 -38 24 -55 30 -55
21z"/>
<path d="M8794 1824 c-18 -14 -18 -14 6 -3 31 14 36 19 24 19 -6 0 -19 -7 -30
-16z"/>
<path d="M3084 1789 c-4 -7 -3 -9 4 -5 6 3 17 -1 25 -9 9 -8 18 -15 21 -15 3
0 35 -18 70 -39 71 -44 156 -88 141 -74 -5 5 -53 35 -106 65 -53 31 -108 63
-122 72 -19 13 -27 14 -33 5z"/>
<path d="M5440 1786 c0 -5 135 -78 163 -89 40 -15 12 4 -55 38 -40 20 -77 41
-82 46 -10 9 -26 12 -26 5z"/>
<path d="M8438 1647 c-153 -77 -276 -142 -274 -144 4 -4 526 256 556 276 45
31 -33 -6 -282 -132z"/>
<path d="M4021 1766 c13 -12 130 -66 125 -57 -4 5 -32 21 -62 35 -52 24 -73
31 -63 22z"/>
<path d="M9398 1671 c-93 -55 -142 -89 -88 -61 52 28 190 111 190 115 0 7 3 9
-102 -54z"/>
<path d="M4190 1686 c0 -2 7 -7 16 -10 8 -3 12 -2 9 4 -6 10 -25 14 -25 6z"/>
<path d="M5630 1686 c0 -5 88 -46 97 -46 9 1 -78 49 -89 50 -5 0 -8 -2 -8 -4z"/>
<path d="M4310 1625 c36 -19 70 -34 75 -34 6 0 -19 15 -55 34 -36 19 -69 34
-75 34 -5 0 19 -15 55 -34z"/>
<path d="M3370 1628 c8 -8 56 -37 105 -63 50 -26 96 -52 103 -58 7 -5 15 -8
17 -5 4 4 -39 29 -195 116 -25 14 -38 18 -30 10z"/>
<path d="M5774 1615 c22 -17 40 -20 32 -6 -3 5 -16 11 -28 14 -22 6 -22 5 -4
-8z"/>
<path d="M5820 1595 c0 -6 50 -31 80 -39 14 -4 5 5 -20 18 -45 25 -60 30 -60
21z"/>
<path d="M9235 1575 c-22 -13 -37 -25 -33 -25 9 0 78 41 78 46 0 6 -3 5 -45
-21z"/>
<path d="M4401 1586 c2 -2 15 -9 29 -15 24 -11 24 -11 6 3 -16 13 -49 24 -35
12z"/>
<path d="M4480 1546 c0 -2 7 -7 16 -10 8 -3 12 -2 9 4 -6 10 -25 14 -25 6z"/>
<path d="M5995 1515 c39 -19 75 -34 80 -34 6 0 -23 16 -64 35 -40 19 -76 34
-80 33 -3 0 26 -16 64 -34z"/>
<path d="M9115 1509 c-27 -17 -54 -36 -60 -42 -11 -11 58 28 96 55 40 28 17
20 -36 -13z"/>
<path d="M4521 1526 c9 -9 139 -65 139 -60 0 3 -30 18 -66 34 -62 28 -83 36
-73 26z"/>
<path d="M3615 1492 c12 -13 151 -92 162 -92 9 0 -24 21 -112 70 -33 18 -55
28 -50 22z"/>
<path d="M7998 1427 c-139 -69 -194 -100 -137 -78 42 16 289 141 289 146 0 7
8 11 -152 -68z"/>
<path d="M6110 1465 c14 -8 30 -14 35 -14 6 0 -1 6 -15 14 -14 8 -29 14 -35
14 -5 0 1 -6 15 -14z"/>
<path d="M6735 1465 c-16 -7 -23 -14 -14 -14 8 -1 24 6 35 14 24 18 18 18 -21
0z"/>
<path d="M4690 1445 c14 -8 30 -14 35 -14 6 0 -1 6 -15 14 -14 8 -29 14 -35
14 -5 0 1 -6 15 -14z"/>
<path d="M9015 1450 c-3 -6 1 -7 9 -4 18 7 21 14 7 14 -6 0 -13 -4 -16 -10z"/>
<path d="M6190 1432 c35 -19 90 -36 90 -28 0 4 -38 18 -105 41 -11 3 -4 -2 15
-13z"/>
<path d="M6645 1430 c-22 -11 -29 -17 -15 -14 29 8 80 33 65 33 -5 0 -28 -8
-50 -19z"/>
<path d="M8958 1419 c-21 -11 -38 -22 -38 -24 0 -3 18 4 40 15 22 11 40 23 40
25 0 7 0 7 -42 -16z"/>
<path d="M4830 1380 c30 -16 60 -29 65 -29 6 0 -15 13 -45 29 -30 16 -59 29
-65 29 -5 0 15 -13 45 -29z"/>
<path d="M6530 1389 c-54 -20 -121 -21 -190 -5 -14 4 -9 0 10 -8 50 -21 117
-19 188 5 34 11 62 23 62 25 0 7 -12 4 -70 -17z"/>
<path d="M3790 1396 c0 -3 9 -10 20 -16 11 -6 20 -8 20 -6 0 3 -9 10 -20 16
-11 6 -20 8 -20 6z"/>
<path d="M8837 1351 c-70 -39 -96 -58 -61 -44 44 18 153 86 132 83 -2 -1 -33
-18 -71 -39z"/>
<path d="M4930 1335 c14 -8 30 -14 35 -14 6 0 -1 6 -15 14 -14 8 -29 14 -35
14 -5 0 1 -6 15 -14z"/>
<path d="M3935 1314 c26 -24 94 -59 100 -52 3 3 -22 20 -57 38 -38 19 -55 25
-43 14z"/>
<path d="M7750 1305 c-25 -13 -42 -24 -39 -25 10 0 99 40 99 45 0 9 -15 4 -60
-20z"/>
<path d="M5040 1285 c14 -8 30 -14 35 -14 6 0 -1 6 -15 14 -14 8 -29 14 -35
14 -5 0 1 -6 15 -14z"/>
<path d="M8648 1247 c-53 -29 -100 -56 -105 -61 -10 -11 188 92 202 105 16 16
2 9 -97 -44z"/>
<path d="M7670 1265 c-14 -8 -20 -14 -14 -15 5 0 19 7 30 15 24 18 16 19 -16
0z"/>
<path d="M5100 1260 c8 -5 20 -10 25 -10 6 0 3 5 -5 10 -8 5 -19 10 -25 10 -5
0 -3 -5 5 -10z"/>
<path d="M4041 1250 c-9 -5 -4 -7 13 -7 29 0 32 2 13 10 -8 3 -20 2 -26 -3z"/>
<path d="M7620 1243 c-8 -3 -64 -29 -125 -58 -60 -29 -127 -60 -148 -69 -21
-10 -37 -20 -34 -22 4 -5 312 138 324 150 7 7 4 7 -17 -1z"/>
<path d="M5190 1220 c19 -11 40 -19 45 -19 6 0 -6 8 -25 19 -19 11 -39 19 -45
19 -5 0 6 -8 25 -19z"/>
<path d="M4115 1222 c18 -18 295 -155 295 -147 0 3 -69 39 -152 81 -84 42
-148 71 -143 66z"/>
<path d="M5280 1180 c19 -11 40 -19 45 -19 6 0 -6 8 -25 19 -19 11 -39 19 -45
19 -5 0 6 -8 25 -19z"/>
<path d="M8500 1165 c-14 -8 -20 -14 -14 -15 5 0 19 7 30 15 24 18 16 19 -16
0z"/>
<path d="M5399 1129 c24 -11 46 -18 48 -15 4 4 -73 36 -85 35 -4 0 13 -9 37
-20z"/>
<path d="M8408 1119 c-32 -16 -58 -32 -58 -34 0 -3 27 8 60 25 33 17 60 32 60
35 0 7 2 8 -62 -26z"/>
<path d="M5470 1100 c8 -5 20 -10 25 -10 6 0 3 5 -5 10 -8 5 -19 10 -25 10 -5
0 -3 -5 5 -10z"/>
<path d="M5530 1075 c14 -8 30 -14 35 -14 6 0 -1 6 -15 14 -14 8 -29 14 -35
14 -5 0 1 -6 15 -14z"/>
<path d="M7255 1075 c-16 -8 -51 -24 -77 -35 -52 -22 -66 -35 -20 -19 44 16
148 67 137 68 -5 0 -23 -7 -40 -14z"/>
<path d="M8300 1060 c-19 -11 -31 -19 -27 -20 11 0 67 29 67 35 0 7 -1 7 -40
-15z"/>
<path d="M4420 1066 c0 -2 7 -7 16 -10 8 -3 12 -2 9 4 -6 10 -25 14 -25 6z"/>
<path d="M4478 1035 c22 -16 101 -52 91 -41 -8 8 -99 56 -107 56 -3 0 3 -7 16
-15z"/>
<path d="M5640 1030 c8 -5 20 -10 25 -10 6 0 3 5 -5 10 -8 5 -19 10 -25 10 -5
0 -3 -5 5 -10z"/>
<path d="M8130 975 c-69 -35 -122 -64 -117 -64 10 -1 247 118 247 124 0 7 8
11 -130 -60z"/>
<path d="M5700 1005 c14 -8 30 -14 35 -14 6 0 -1 6 -15 14 -14 8 -29 14 -35
14 -5 0 1 -6 15 -14z"/>
<path d="M7090 1003 c-53 -20 -82 -34 -78 -38 3 -3 29 6 59 19 48 22 60 34 19
19z"/>
<path d="M4580 985 c0 -5 89 -45 99 -45 8 1 -81 49 -91 50 -5 0 -8 -2 -8 -5z"/>
<path d="M5760 980 c20 -13 33 -13 25 0 -3 6 -14 10 -23 10 -15 0 -15 -2 -2
-10z"/>
<path d="M6960 945 c-14 -8 -20 -14 -15 -14 6 0 21 6 35 14 14 8 21 14 15 14
-5 0 -21 -6 -35 -14z"/>
<path d="M4704 926 c11 -9 24 -16 30 -16 12 0 7 5 -24 19 -24 11 -24 11 -6 -3z"/>
<path d="M5890 932 c8 -5 26 -13 40 -16 17 -5 20 -4 10 2 -8 5 -26 13 -40 16
-17 5 -20 4 -10 -2z"/>
<path d="M6875 909 c-22 -10 -29 -16 -15 -13 28 7 80 33 65 33 -5 0 -28 -9
-50 -20z"/>
<path d="M4757 899 c7 -7 15 -10 18 -7 3 3 -2 9 -12 12 -14 6 -15 5 -6 -5z"/>
<path d="M7930 874 c-36 -19 -54 -32 -40 -28 26 7 110 53 110 60 0 6 1 6 -70
-32z"/>
<path d="M6020 882 c8 -5 26 -13 40 -16 17 -5 20 -4 10 2 -8 5 -26 13 -40 16
-17 5 -20 4 -10 -2z"/>
<path d="M6780 874 l-25 -15 25 7 c14 3 32 10 40 15 13 7 13 8 0 8 -8 0 -26
-6 -40 -15z"/>
<path d="M4840 860 c8 -5 20 -10 25 -10 6 0 3 5 -5 10 -8 5 -19 10 -25 10 -5
0 -3 -5 5 -10z"/>
<path d="M6690 840 c-8 -5 -10 -10 -5 -10 6 0 17 5 25 10 8 5 11 10 5 10 -5 0
-17 -5 -25 -10z"/>
<path d="M7810 814 c-48 -27 -46 -27 13 -4 20 8 37 18 37 22 0 10 2 11 -50
-18z"/>
<path d="M4950 810 c8 -5 20 -10 25 -10 6 0 3 5 -5 10 -8 5 -19 10 -25 10 -5
0 -3 -5 5 -10z"/>
<path d="M6605 810 c-13 -6 -15 -9 -5 -9 8 0 22 4 30 9 18 12 2 12 -25 0z"/>
<path d="M6245 800 c27 -12 43 -12 25 0 -8 5 -22 9 -30 9 -10 0 -8 -3 5 -9z"/>
<path d="M4990 795 c0 -7 61 -37 66 -33 2 3 -12 12 -31 21 -19 9 -35 15 -35
12z"/>
<path d="M6520 785 c-19 -7 -28 -13 -20 -13 8 0 31 6 50 13 19 7 28 13 20 13
-8 0 -31 -6 -50 -13z"/>
<path d="M6305 780 c11 -5 27 -9 35 -9 13 -1 13 0 0 9 -8 5 -24 9 -35 9 l-20
0 20 -9z"/>
<path d="M7673 752 c-40 -20 -73 -39 -73 -43 0 -5 144 65 159 77 15 13 -25 -3
-86 -34z"/>
<path d="M6388 763 c17 -2 47 -2 65 0 17 2 3 4 -33 4 -36 0 -50 -2 -32 -4z"/>
<path d="M5140 725 c0 -2 14 -10 30 -19 17 -8 30 -11 30 -6 0 4 -13 13 -30 19
-16 5 -30 8 -30 6z"/>
<path d="M5217 689 c7 -7 15 -10 18 -7 3 3 -2 9 -12 12 -14 6 -15 5 -6 -5z"/>
<path d="M5256 671 c5 -5 20 -12 34 -15 l25 -7 -25 15 c-28 17 -50 21 -34 7z"/>
<path d="M7490 665 c-14 -8 -20 -14 -15 -14 6 0 21 6 35 14 14 8 21 14 15 14
-5 0 -21 -6 -35 -14z"/>
<path d="M5340 635 c14 -8 30 -14 35 -14 6 0 -1 6 -15 14 -14 8 -29 14 -35 14
-5 0 1 -6 15 -14z"/>
<path d="M7385 615 c-27 -13 -47 -24 -43 -24 10 -1 98 38 98 44 0 7 3 8 -55
-20z"/>
<path d="M5440 595 c0 -8 73 -36 78 -30 3 3 3 5 0 5 -3 0 -22 7 -42 15 -20 8
-36 13 -36 10z"/>
<path d="M7235 549 c-44 -21 -70 -36 -58 -34 26 7 162 74 148 74 -5 0 -46 -18
-90 -40z"/>
<path d="M5540 552 c8 -5 26 -13 40 -16 17 -5 20 -4 10 2 -8 5 -26 13 -40 16
-17 5 -20 4 -10 -2z"/>
<path d="M5670 500 c8 -5 20 -10 25 -10 6 0 3 5 -5 10 -8 5 -19 10 -25 10 -5
0 -3 -5 5 -10z"/>
<path d="M7120 500 c-8 -5 -10 -10 -5 -10 6 0 17 5 25 10 8 5 11 10 5 10 -5 0
-17 -5 -25 -10z"/>
<path d="M5720 480 c8 -5 20 -10 25 -10 6 0 3 5 -5 10 -8 5 -19 10 -25 10 -5
0 -3 -5 5 -10z"/>
<path d="M7045 470 c-22 -10 -33 -19 -25 -19 8 0 31 8 50 19 45 24 28 24 -25
0z"/>
<path d="M5770 460 c8 -5 20 -10 25 -10 6 0 3 5 -5 10 -8 5 -19 10 -25 10 -5
0 -3 -5 5 -10z"/>
<path d="M6960 435 c-14 -8 -20 -14 -15 -14 6 0 21 6 35 14 14 8 21 14 15 14
-5 0 -21 -6 -35 -14z"/>
<path d="M5895 411 c17 -10 34 -16 39 -13 5 2 -6 11 -24 18 -45 19 -51 17 -15
-5z"/>
<path d="M6790 370 c-8 -5 -10 -10 -5 -10 6 0 17 5 25 10 8 5 11 10 5 10 -5 0
-17 -5 -25 -10z"/>
<path d="M6040 360 c8 -5 22 -10 30 -10 13 0 13 1 0 10 -8 5 -22 10 -30 10
-13 0 -13 -1 0 -10z"/>
<path d="M6154 324 c39 -13 77 -24 85 -24 9 1 -18 12 -59 25 -97 32 -116 31
-26 -1z"/>
<path d="M6590 305 c-19 -7 -28 -13 -20 -13 8 0 31 6 50 13 19 7 28 13 20 13
-8 0 -31 -6 -50 -13z"/>
<path d="M6305 280 c11 -5 29 -8 40 -8 16 0 15 2 -5 8 -34 11 -60 11 -35 0z"/>
<path d="M6528 283 c7 -3 16 -2 19 1 4 3 -2 6 -13 5 -11 0 -14 -3 -6 -6z"/>
<path d="M6460 270 c-20 -6 -21 -8 -5 -8 11 0 29 3 40 8 25 11 -1 11 -35 0z"/>
</g>
</svg>
