<?xml version="1.0" standalone="no"?>
<!DOCTYPE svg PUBLIC "-//W3C//DTD SVG 20010904//EN"
 "http://www.w3.org/TR/2001/REC-SVG-20010904/DTD/svg10.dtd">
<svg version="1.0" xmlns="http://www.w3.org/2000/svg"
 width="1280.000000pt" height="636.000000pt" viewBox="0 0 1280.000000 636.000000"
 preserveAspectRatio="xMidYMid meet">

<g transform="translate(0.000000,636.000000) scale(0.100000,-0.100000)"
fill="#000000" stroke="none">
<path d="M6448 6313 c7 -3 16 -2 19 1 4 3 -2 6 -13 5 -11 0 -14 -3 -6 -6z"/>
<path d="M6353 6303 c15 -2 37 -2 50 0 12 2 0 4 -28 4 -27 0 -38 -2 -22 -4z"/>
<path d="M6496 6303 c-18 -5 -18 -6 5 -19 23 -14 23 -15 -11 -8 -19 4 -64 8
-100 8 -36 1 -68 5 -72 11 -9 13 -73 -10 -114 -41 -17 -13 -35 -20 -39 -16 -3
4 -5 2 -3 -4 4 -15 -127 -136 -137 -126 -3 4 -5 2 -3 -4 4 -15 -121 -154 -136
-151 -6 1 -10 -3 -9 -9 2 -13 -61 -74 -77 -74 -5 0 -9 -4 -8 -8 4 -12 -64 -82
-74 -76 -5 3 -7 0 -6 -8 2 -7 -3 -12 -10 -10 -8 1 -11 -2 -7 -7 8 -14 -33 -53
-47 -45 -6 4 -8 3 -5 -3 8 -13 -17 -36 -28 -25 -5 4 -5 2 -2 -4 7 -13 -149
-180 -164 -176 -6 1 -8 -1 -5 -6 7 -12 -118 -134 -128 -125 -4 4 -6 3 -4 -4 4
-16 -122 -144 -135 -136 -5 3 -7 2 -4 -4 3 -5 -33 -49 -79 -99 -102 -106 -174
-199 -174 -225 0 -10 -4 -21 -10 -24 -5 -3 -10 -11 -10 -18 0 -6 7 -2 15 9 8
11 14 14 15 6 0 -16 -40 -72 -52 -72 -5 0 -4 9 2 20 17 31 4 24 -51 -30 -28
-27 -56 -47 -62 -43 -6 3 -7 1 -3 -5 4 -7 0 -12 -11 -13 -11 0 -13 -3 -5 -6 8
-3 -17 -35 -69 -89 -45 -46 -86 -81 -91 -78 -5 3 -7 0 -6 -8 2 -7 -3 -12 -10
-10 -8 1 -11 -2 -8 -6 3 -5 -29 -43 -72 -85 -42 -41 -90 -91 -106 -111 -15
-20 -33 -33 -39 -29 -5 3 -7 2 -4 -4 8 -13 -47 -66 -58 -56 -4 5 -5 3 -2 -3 8
-14 -56 -77 -68 -67 -4 5 -5 3 -2 -3 8 -14 -26 -47 -38 -37 -4 5 -5 2 -1 -4 8
-15 -42 -66 -56 -57 -4 3 -7 0 -6 -8 2 -7 -3 -12 -10 -10 -8 1 -11 -2 -7 -8 3
-5 2 -10 -3 -10 -5 0 -14 -12 -20 -26 -8 -16 -17 -22 -25 -18 -6 4 -9 4 -5 0
9 -11 -23 -46 -35 -39 -6 3 -7 1 -4 -4 8 -13 -17 -36 -27 -25 -4 4 -6 1 -4 -6
2 -8 -10 -24 -25 -35 -25 -20 -44 -23 -178 -27 -94 -3 -154 -1 -160 5 -7 7 -8
4 -4 -7 4 -9 14 -18 23 -20 9 -2 -134 -2 -316 0 -242 2 -332 -1 -332 -9 0 -6
-7 -8 -16 -5 -9 3 -32 -2 -51 -11 -34 -16 -37 -16 -67 3 -28 17 -57 19 -321
24 l-290 6 283 2 c155 1 282 5 282 10 0 8 -557 4 -608 -5 -17 -3 -32 -1 -32 3
0 5 -234 9 -520 9 -286 0 -520 -3 -520 -6 0 -4 -26 -9 -57 -13 -32 -4 -85 -18
-118 -32 -33 -15 -68 -27 -77 -27 -10 -1 -18 -4 -18 -8 0 -4 -17 -18 -37 -30
-50 -31 -57 -34 -48 -19 5 9 4 11 -4 6 -6 -4 -9 -11 -6 -16 6 -10 -50 -52 -58
-44 -3 4 -9 -5 -13 -20 -3 -14 -10 -24 -14 -21 -9 6 -31 -18 -34 -37 -3 -22
-32 -58 -41 -50 -5 4 -5 2 -1 -5 3 -6 -3 -30 -15 -52 -12 -23 -25 -56 -30 -74
-5 -17 -18 -66 -29 -107 -11 -41 -23 -87 -25 -101 -10 -67 -49 -215 -58 -220
-5 -4 -7 -11 -3 -17 3 -6 2 -30 -3 -54 -6 -24 -19 -98 -31 -166 -20 -113 -20
-131 -8 -220 7 -57 14 -85 16 -67 3 24 8 16 24 -45 12 -41 21 -86 20 -99 0
-16 3 -20 8 -11 6 9 11 8 19 -8 17 -32 90 -114 123 -139 17 -12 25 -24 19 -28
-6 -3 -11 -16 -11 -27 0 -12 -7 -29 -16 -39 -9 -10 -14 -24 -11 -31 3 -8 9 -4
15 12 16 38 14 1 -3 -45 -12 -34 -14 -36 -16 -15 -2 38 -24 -40 -44 -154 -25
-150 -14 -343 17 -276 5 12 7 12 7 -2 1 -10 6 -18 12 -18 14 0 7 -42 -8 -47
-7 -3 -10 4 -7 19 4 19 -2 15 -34 -20 -22 -24 -50 -61 -63 -83 -13 -21 -31
-39 -39 -40 -9 0 -10 -2 -3 -5 8 -4 8 -14 -3 -39 -8 -19 -16 -47 -18 -62 -2
-16 -6 -35 -9 -43 -22 -60 -15 -230 9 -230 7 0 25 -18 41 -39 55 -78 42 -76
623 -76 507 0 516 0 605 23 49 13 92 27 95 31 8 14 50 23 50 12 0 -15 -83 -50
-170 -72 -68 -18 -121 -19 -600 -22 -289 -1 -509 -3 -490 -5 19 -2 42 -9 50
-16 22 -18 68 -36 91 -36 11 0 36 -7 57 -16 30 -14 77 -17 242 -19 129 -2 207
1 211 7 5 7 46 6 125 -2 95 -10 139 -11 219 -1 55 7 126 12 158 11 31 -1 57 3
57 8 0 5 24 13 52 16 29 4 58 12 65 17 20 17 133 14 208 -6 39 -10 79 -19 90
-20 11 -2 54 -8 95 -14 180 -26 618 -32 720 -9 61 13 178 14 315 2 145 -13
535 -13 535 0 0 6 23 20 51 31 45 18 54 26 69 65 18 46 40 65 40 34 0 -14 3
-15 12 -6 10 10 10 15 -1 21 -8 6 -10 14 -5 22 5 8 9 30 10 49 0 19 6 46 11
60 6 14 14 32 16 41 6 20 100 45 119 32 17 -11 98 -11 98 0 0 5 29 5 64 2 50
-6 72 -3 96 9 18 8 47 18 65 22 19 3 52 23 75 44 49 45 76 55 90 32 6 -12 7
-5 3 23 -3 22 -2 36 3 32 4 -4 8 -63 9 -130 1 -104 4 -128 22 -163 25 -46 58
-80 47 -48 -5 18 -5 18 13 -1 58 -63 154 -78 438 -66 203 9 248 19 277 63 9
13 24 32 35 43 10 11 24 40 31 65 8 25 17 59 22 75 5 17 14 61 20 100 6 38 15
74 20 80 4 5 10 33 13 60 14 129 47 254 70 267 29 15 31 3 7 -46 -12 -25 -22
-61 -23 -81 -1 -19 -5 -35 -9 -35 -5 0 -8 -10 -8 -22 0 -13 -16 -97 -34 -188
-60 -291 -75 -319 -206 -382 -42 -21 -62 -23 -265 -25 -296 -3 -275 -2 -247
-13 12 -5 22 -13 22 -19 0 -9 9 -12 112 -41 78 -21 301 -27 358 -10 19 6 62
15 95 20 104 16 119 21 134 43 9 12 16 25 16 28 0 4 12 26 27 49 16 23 33 69
40 106 6 35 15 64 20 64 4 0 8 24 8 53 1 28 5 70 10 92 25 113 33 141 44 154
8 11 8 15 -1 18 -24 8 -13 41 23 69 20 16 42 40 48 53 l13 24 22 -22 c21 -21
21 -21 21 -1 0 11 -4 20 -8 20 -5 0 -9 13 -9 30 0 16 -8 39 -18 50 -16 17 -17
23 -6 30 24 14 38 0 51 -48 6 -26 19 -64 27 -84 9 -20 13 -47 10 -60 -4 -13 3
-57 14 -98 51 -191 69 -266 64 -278 -3 -7 -1 -11 4 -7 5 3 12 -1 14 -7 3 -7 6
-2 7 12 1 21 3 18 15 -15 8 -22 13 -46 10 -53 -3 -7 -1 -11 3 -8 5 3 24 -15
43 -38 59 -75 81 -81 342 -84 222 -3 337 7 337 29 0 5 7 9 15 9 8 0 15 3 15 8
1 4 10 18 21 31 16 20 22 22 29 11 13 -22 -65 -87 -128 -106 -43 -13 -92 -15
-275 -12 -122 2 -230 8 -239 12 -11 5 -18 4 -18 -3 0 -6 12 -14 28 -17 15 -4
34 -12 42 -19 25 -20 79 -38 95 -31 8 3 15 2 15 -2 0 -4 8 -8 18 -9 9 0 51 -5
92 -9 41 -5 122 -8 180 -7 58 2 124 3 148 3 30 1 42 5 42 15 0 11 12 15 39 15
22 0 41 4 43 10 4 13 64 14 113 2 22 -6 67 -15 100 -22 33 -6 74 -15 90 -20
17 -4 136 -8 265 -9 138 -1 249 -6 269 -12 25 -9 35 -8 41 0 4 8 33 11 81 9
41 -2 129 -2 197 0 96 1 122 5 122 16 0 7 12 16 28 19 73 13 132 33 132 44 0
7 5 13 12 13 6 0 31 21 55 47 33 35 46 44 55 35 7 -7 19 -12 29 -12 24 0 13
43 -18 75 -22 22 -35 25 -90 25 -50 0 -72 -5 -95 -21 -38 -27 -49 -17 -15 15
22 20 38 24 112 28 74 4 88 2 93 -12 15 -35 66 -106 90 -124 24 -19 53 -20
431 -29 510 -11 625 1 689 70 13 14 25 23 28 20 8 -8 -6 -47 -17 -47 -5 0 -26
-11 -47 -25 -24 -16 -63 -28 -112 -35 -86 -13 -898 -11 -945 1 -28 8 -29 7
-11 -6 11 -8 26 -15 34 -15 7 0 20 -7 28 -15 9 -8 24 -15 34 -15 10 0 49 -11
87 -24 67 -24 74 -24 420 -25 230 0 354 3 358 10 4 6 29 7 64 3 40 -4 79 -1
128 11 74 18 62 18 388 -15 50 -5 262 -8 473 -7 210 2 382 -1 382 -6 0 -12
670 0 704 13 15 5 31 8 35 6 11 -7 99 18 152 43 25 12 52 33 59 46 7 14 17 25
21 25 12 0 35 50 43 93 4 20 11 37 16 37 6 0 10 14 10 30 0 17 4 30 8 30 4 0
13 28 20 63 7 34 17 82 23 107 9 42 1 232 -8 203 -9 -25 -23 -13 -21 16 1 16
-4 36 -11 45 -7 8 -9 21 -5 28 4 7 3 10 -1 5 -5 -4 -17 0 -27 9 -17 16 -15 20
42 75 33 32 60 65 60 74 0 8 6 15 13 15 7 0 19 21 25 48 7 26 23 70 36 98 35
76 50 181 42 304 -5 87 -3 109 10 128 9 13 13 31 9 42 -4 13 -2 20 7 20 24 0
40 72 49 210 4 74 13 160 20 190 6 30 11 71 10 90 -1 33 5 57 34 125 7 17 21
65 30 108 9 42 21 77 25 77 4 0 10 19 13 43 8 68 18 101 34 114 10 8 17 39 20
95 3 46 9 85 14 88 4 3 10 22 14 43 6 29 4 37 -7 37 -17 0 -32 28 -48 91 -8
33 -19 50 -36 58 -15 7 -27 22 -31 41 -5 28 -8 30 -39 26 -25 -5 -34 -2 -37
12 -4 15 -5 15 -6 -1 0 -10 -5 -15 -11 -12 -5 3 -10 1 -10 -4 0 -6 -5 -11 -10
-11 -6 0 -10 6 -9 13 4 29 -2 61 -9 50 -8 -13 -50 5 -51 22 -1 9 -37 14 -106
16 -11 0 -272 -4 -580 -9 l-560 -9 600 -4 600 -4 -610 -6 c-335 -4 -619 -7
-630 -8 -11 0 -110 3 -220 7 -110 5 -164 9 -121 10 99 2 93 15 -7 15 -86 -1
-128 -12 -213 -59 -33 -19 -64 -31 -68 -26 -4 4 -6 0 -4 -8 2 -9 -4 -14 -14
-14 -10 1 -15 -2 -13 -7 3 -4 -2 -14 -10 -21 -19 -15 -93 -89 -150 -148 -27
-28 -33 -39 -20 -34 11 4 -6 -20 -40 -55 -40 -41 -67 -61 -79 -59 -13 2 -41
38 -81 104 -33 56 -66 109 -74 118 -7 9 -15 31 -17 49 -3 30 -3 31 11 12 8
-11 19 -26 25 -33 6 -7 8 -18 4 -25 -4 -6 -4 -9 1 -5 9 8 36 -31 89 -125 26
-46 42 -65 55 -64 11 0 17 6 14 12 -6 16 23 38 38 29 7 -4 9 -3 5 4 -3 6 2 18
11 28 17 17 17 18 0 11 -18 -7 -45 13 -122 92 -24 25 -42 49 -39 53 5 8 -8 27
-34 51 -7 7 -22 21 -32 31 -11 11 -20 16 -20 11 0 -4 -9 0 -20 10 -11 10 -20
14 -20 9 0 -5 -6 -2 -13 6 -7 8 -24 21 -37 29 -18 10 -13 1 18 -33 24 -25 40
-51 37 -56 -3 -5 -1 -11 5 -15 5 -3 10 -11 10 -18 0 -6 -16 6 -35 26 -19 20
-34 42 -32 48 1 7 -18 26 -41 43 l-44 31 -181 0 c-212 -1 -288 -9 -319 -35
l-23 -19 25 5 c18 4 10 -4 -25 -28 -27 -18 -51 -36 -53 -40 -7 -16 -39 -7 -72
21 -19 15 -49 35 -66 44 -17 9 -43 32 -58 52 -15 20 -161 170 -324 334 -164
165 -336 339 -384 388 -137 141 -269 263 -311 290 -21 13 -41 31 -44 40 -4 9
-14 24 -22 33 -9 10 -34 39 -56 65 -30 36 -278 295 -354 370 -306 302 -819
829 -815 838 4 13 -54 57 -75 57 -7 0 -9 5 -6 10 3 6 5 9 3 9 -2 -1 -12 -4
-22 -6z m942 -1513 l-2 -215 -6 160 c-4 88 -8 183 -9 210 l-1 50 -446 445
c-245 245 -477 477 -515 515 l-69 70 0 -246 0 -247 512 -511 c375 -374 515
-508 524 -500 9 7 12 1 12 -26 0 -27 -3 -33 -14 -27 -7 4 -248 241 -533 526
-286 285 -524 516 -528 514 -7 -3 -122 -119 -483 -493 -80 -83 -248 -256 -375
-386 -126 -129 -258 -266 -293 -303 -34 -37 -67 -64 -72 -61 -6 4 -8 28 -6 53
3 26 5 149 5 275 l1 227 202 208 c112 114 273 279 358 367 85 88 270 276 412
419 l257 259 536 -534 535 -533 -2 -216z m-134 -752 l221 -218 -459 0 c-253 0
-457 2 -455 4 44 40 140 109 166 118 18 7 33 16 33 20 0 4 -97 105 -215 224
l-216 216 -217 -213 c-119 -117 -218 -216 -220 -221 -2 -4 7 -12 20 -17 13 -5
54 -32 93 -60 38 -28 73 -51 77 -51 5 0 8 -6 8 -12 0 -10 -92 -12 -437 -10
-241 2 -439 4 -440 6 -3 3 806 823 1011 1024 l104 103 353 -348 c194 -191 452
-446 573 -565z m264 295 c-7 -8 -21 -19 -33 -24 -77 -36 -78 -33 30 -86 89
-43 128 -73 95 -73 -15 0 -220 111 -220 119 1 3 22 16 48 28 72 34 76 44 73
228 -1 88 2 198 6 245 6 68 9 33 11 -169 2 -189 -1 -257 -10 -268z m-2570
-124 l-3 -384 -383 -5 c-211 -3 -385 -3 -387 0 -2 3 46 57 108 120 61 63 181
187 267 275 85 88 206 213 269 278 63 64 118 114 123 109 4 -4 7 -181 6 -393z
m3412 -193 l196 -196 -341 1 c-204 1 -326 4 -305 9 19 5 139 6 265 4 127 -3
254 -2 284 1 l53 7 -278 280 c-304 306 -427 428 -431 428 -5 0 0 -662 5 -688
3 -14 15 -25 36 -31 30 -9 29 -9 -16 -10 l-48 -1 0 393 0 392 193 -197 c105
-108 280 -285 387 -392z m-733 247 c-1 -43 -3 -8 -3 77 0 85 2 120 3 78 2 -43
2 -113 0 -155z m-5613 -661 c3 -5 -62 -78 -144 -162 -178 -182 -151 -172 -451
-169 -236 3 -246 0 -273 -81 -17 -48 -70 -301 -88 -412 -12 -80 1 -111 53
-122 47 -9 232 -7 248 3 8 5 29 82 51 194 21 102 41 194 45 206 6 21 11 21
226 21 120 0 219 -3 219 -6 0 -4 -11 -59 -25 -123 -65 -293 -75 -342 -94 -431
-11 -52 -24 -115 -28 -140 l-9 -45 -490 0 -491 0 -49 30 c-99 62 -138 169
-115 319 18 117 128 615 146 660 20 50 67 117 108 156 40 38 138 88 197 99 58
11 957 14 964 3z m641 -19 c-11 -46 -44 -199 -80 -373 -19 -91 -48 -230 -64
-310 -37 -174 -39 -215 -12 -230 26 -13 214 -13 244 1 49 22 52 31 162 578 36
178 70 332 76 342 9 18 22 19 232 17 190 -3 222 -5 221 -18 -1 -8 -18 -87 -37
-175 -20 -88 -43 -194 -51 -235 -9 -41 -27 -127 -41 -190 -14 -63 -34 -160
-45 -215 -46 -231 -114 -336 -263 -406 -92 -42 -186 -51 -502 -47 -205 3 -260
7 -303 22 -71 23 -136 83 -156 144 -36 111 -35 121 63 597 32 160 69 337 80
395 12 58 24 111 26 118 3 9 59 12 231 12 l226 0 -7 -27z m1455 13 c0 -7 -4
-26 -10 -42 -5 -16 -37 -159 -69 -319 -33 -159 -75 -364 -95 -455 -19 -91 -48
-228 -63 -305 l-28 -140 -225 -3 c-123 -1 -227 1 -232 6 -4 4 -1 32 7 62 16
59 92 404 107 485 28 154 147 705 154 717 3 5 106 8 230 8 181 0 224 -3 224
-14z m663 7 c2 -5 -29 -163 -69 -353 -78 -369 -124 -589 -124 -595 0 -3 53 -6
118 -7 98 -3 116 -5 114 -18 -2 -8 -15 -71 -28 -140 -14 -69 -27 -133 -30
-142 -5 -17 -30 -18 -350 -18 -335 0 -344 0 -344 20 0 10 14 84 31 162 38 175
96 454 110 528 37 198 113 547 121 558 8 9 66 12 229 12 120 0 220 -3 222 -7z
m864 -45 c-4 -29 -26 -140 -51 -246 -31 -140 -40 -195 -31 -198 6 -3 56 -3
111 -2 l99 3 21 105 c54 263 66 317 75 353 l10 37 227 -2 c144 -2 226 -7 225
-13 0 -5 -22 -111 -48 -235 -25 -124 -78 -380 -117 -570 -39 -190 -76 -370
-82 -400 l-12 -55 -227 -3 -227 -2 0 22 c0 13 9 60 20 104 10 45 29 128 40
185 12 57 24 114 27 127 5 22 4 22 -109 22 l-114 0 -45 -227 -45 -228 -227 -3
c-187 -2 -227 0 -227 11 0 8 11 65 25 128 21 93 140 684 211 1044 9 44 21 83
27 87 7 4 110 8 231 8 l219 0 -6 -52z m1923 42 c0 -6 -10 -52 -21 -103 -12
-50 -27 -119 -33 -152 l-11 -60 -287 -3 -288 -2 -5 -23 c-28 -127 -33 -153
-28 -160 3 -5 130 -7 282 -6 266 2 276 2 275 -17 -1 -16 -32 -174 -49 -251
l-5 -23 -287 -2 -287 -3 -6 -25 c-4 -14 -10 -49 -14 -77 l-7 -53 284 0 c156 0
286 -2 288 -5 3 -2 -8 -72 -25 -155 l-30 -150 -518 0 c-285 0 -518 3 -518 6 0
3 7 36 15 73 33 143 89 408 140 662 30 146 59 286 64 310 6 24 17 82 26 129 9
47 22 88 28 92 19 12 1017 10 1017 -2z m1159 0 c221 -36 288 -189 217 -500
-31 -134 -61 -197 -124 -262 -49 -51 -136 -102 -192 -113 -59 -11 -70 -16 -70
-30 0 -7 45 -88 100 -179 55 -91 100 -171 100 -176 0 -6 -88 -10 -237 -10
l-238 0 -44 73 c-25 39 -62 95 -83 124 -21 29 -38 55 -38 57 0 3 -16 30 -35
60 -34 54 -52 72 -61 64 -2 -3 -20 -85 -40 -184 -19 -98 -39 -182 -43 -187 -4
-4 -106 -6 -227 -5 -187 3 -219 5 -218 18 2 17 38 192 84 410 17 80 55 267 85
415 72 359 84 410 97 423 16 16 875 16 967 2z m811 -12 c12 -13 41 -52 64 -88
60 -92 274 -444 282 -464 3 -9 11 -16 18 -16 7 0 134 125 283 279 152 155 287
285 306 295 50 23 327 24 327 1 0 -9 -11 -61 -25 -118 -13 -56 -29 -127 -34
-157 -10 -56 -106 -521 -159 -775 -17 -77 -33 -157 -36 -177 l-7 -38 -221 0
-221 0 6 48 c4 26 19 107 35 180 16 73 25 135 21 137 -3 3 -42 -32 -85 -77
-220 -229 -279 -288 -296 -294 -11 -3 -26 0 -35 8 -27 22 -86 108 -162 236
-39 67 -76 122 -81 122 -5 0 -13 -24 -19 -52 -5 -29 -19 -102 -31 -163 -11
-60 -23 -118 -26 -127 -5 -16 -25 -18 -230 -18 -128 0 -224 4 -224 9 0 5 12
58 26 118 14 59 61 281 104 493 107 525 131 633 142 648 7 8 47 12 134 12 115
0 125 -2 144 -22z m2540 10 c0 -7 -15 -82 -32 -165 l-33 -153 -292 0 -291 0
-21 -89 c-12 -49 -21 -92 -21 -96 0 -4 128 -6 285 -3 157 3 285 2 285 -1 0 -9
-50 -253 -56 -273 -5 -17 -28 -18 -293 -18 l-288 0 -12 -57 c-6 -32 -14 -68
-17 -80 l-6 -23 296 0 c163 0 296 -4 296 -9 0 -8 -43 -223 -55 -278 l-5 -23
-525 0 c-493 0 -525 1 -525 18 0 9 7 46 16 82 31 130 106 479 139 646 49 247
106 517 111 526 3 5 239 8 525 8 408 0 519 -3 519 -12z m-10150 -1468 c0 -12
-86 -142 -132 -202 l-30 -38 -307 0 c-281 0 -309 -2 -324 -17 -18 -21 -31 -83
-20 -100 6 -8 87 -12 283 -15 297 -3 313 -6 353 -60 43 -57 29 -256 -27 -381
-25 -58 -89 -121 -145 -144 -58 -25 -329 -35 -689 -26 l-324 8 38 50 c21 28
60 76 87 108 l49 57 295 0 c321 0 348 4 372 56 15 33 14 79 -1 91 -8 6 -122
13 -268 16 -277 5 -308 11 -348 62 -38 48 -46 99 -32 205 25 198 92 291 233
325 67 17 937 21 937 5z m1131 -16 c92 -43 127 -116 116 -242 -8 -80 -81 -422
-107 -497 -38 -110 -101 -174 -205 -208 -67 -21 -85 -22 -405 -22 -358 0 -381
3 -456 51 -60 39 -79 82 -78 173 2 66 23 204 54 336 5 22 17 74 26 115 28 126
78 211 152 262 76 53 118 57 507 55 333 -2 352 -3 396 -23z m1489 20 c0 -14
-86 -172 -113 -206 l-28 -38 -342 -2 -341 -3 -13 -60 c-7 -33 -12 -63 -13 -67
0 -5 131 -8 290 -8 l291 0 -7 -37 c-4 -21 -14 -74 -23 -118 l-16 -80 -290 -3
-290 -2 -29 -143 c-15 -78 -33 -159 -39 -179 l-10 -38 -183 0 -182 0 10 43 c5
23 30 141 54 262 24 121 60 290 79 375 18 85 39 182 45 215 21 106 -46 95 590
95 308 0 560 -3 560 -6z m1330 -5 c0 -17 -80 -150 -119 -196 l-35 -43 -162 0
-161 0 -27 -132 c-76 -365 -127 -593 -134 -600 -4 -4 -86 -8 -182 -9 -199 -1
-190 -6 -170 84 6 28 20 93 31 142 30 139 109 508 109 512 0 1 -92 3 -205 3
l-205 0 0 28 c0 30 36 197 45 212 9 15 1215 13 1215 -1z m440 2 c27 -7 30 -18
75 -226 9 -44 30 -134 45 -200 15 -66 31 -137 34 -157 4 -21 10 -38 14 -38 11
0 71 82 177 240 220 327 248 366 268 377 29 17 158 17 181 0 11 -8 35 -74 66
-182 40 -142 107 -367 126 -424 8 -25 36 13 200 279 86 140 170 274 186 298
l29 42 189 0 c105 0 190 -4 190 -8 0 -4 -19 -35 -43 -67 -23 -33 -76 -112
-117 -175 -70 -110 -387 -593 -453 -692 l-32 -47 -178 -1 -177 0 -11 28 c-14
33 -149 425 -149 430 0 20 -75 -88 -305 -442 -8 -13 -41 -16 -195 -17 l-184
-2 -7 24 c-36 124 -62 212 -74 254 -13 45 -92 328 -147 525 -11 41 -29 98 -39
126 -10 29 -15 55 -12 58 9 8 312 6 343 -3z m2406 1 c12 -7 33 -68 210 -592
45 -135 94 -274 108 -309 14 -36 26 -68 26 -73 0 -4 -79 -8 -176 -8 l-175 0
-20 44 c-10 24 -22 58 -25 75 -4 17 -11 34 -16 37 -12 8 -447 16 -474 10 -13
-4 -44 -38 -76 -86 l-53 -80 -192 0 c-106 0 -193 3 -193 6 0 5 49 73 60 84 20
19 409 590 507 743 28 45 67 99 86 120 l34 37 179 0 c98 0 184 -4 190 -8z
m1671 -20 c34 -16 61 -37 80 -65 26 -38 28 -46 28 -146 0 -111 -22 -223 -56
-292 -39 -78 -156 -149 -247 -149 -42 0 -46 -11 -19 -51 13 -19 40 -63 62 -99
21 -36 54 -85 72 -109 18 -24 33 -47 33 -50 0 -12 -404 0 -417 12 -23 23 -142
263 -157 317 -21 75 -29 162 -17 180 8 12 42 16 163 20 96 3 161 10 175 18 14
8 28 32 38 64 19 66 19 81 -2 107 -18 21 -24 22 -228 19 l-209 -3 -63 -300
c-35 -165 -69 -329 -76 -365 l-14 -65 -181 -3 c-209 -3 -192 -14 -162 111 11
45 53 253 94 462 41 209 78 388 82 398 6 17 33 18 488 15 480 -3 481 -3 533
-26z m1423 17 c0 -18 -51 -182 -66 -211 l-15 -28 -335 0 -334 0 -9 -23 c-5
-13 -12 -44 -16 -69 l-7 -45 297 1 c163 1 299 -2 301 -5 2 -4 -3 -37 -12 -75
-8 -38 -17 -84 -21 -101 -4 -27 -11 -33 -32 -34 -14 -1 -152 -4 -306 -8 l-280
-6 -14 -68 c-8 -37 -11 -70 -8 -74 4 -3 162 -5 352 -4 274 1 346 -1 350 -11 2
-7 -8 -58 -23 -113 l-27 -100 -534 -3 -533 -2 4 32 c3 18 30 152 61 298 31
146 72 348 92 450 20 101 41 190 47 197 14 17 1068 19 1068 2z"/>
<path d="M6390 4663 l1 -238 94 -87 95 -88 237 0 238 0 -325 325 c-179 178
-328 325 -332 325 -5 0 -8 -107 -8 -237z"/>
<path d="M8188 3263 c-10 -2 -18 -6 -18 -8 0 -4 -39 -195 -45 -222 l-5 -23
168 0 c157 0 171 2 196 21 39 31 59 77 60 141 1 83 -7 87 -176 88 -75 0 -142
2 -150 4 -7 2 -21 2 -30 -1z"/>
<path d="M2442 1865 c-36 -31 -49 -67 -87 -257 -32 -160 -32 -203 -4 -219 14
-7 77 -10 189 -7 163 3 169 4 195 28 35 32 39 44 74 208 42 192 45 223 27 247
-13 18 -28 20 -189 23 l-174 3 -31 -26z"/>
<path d="M8437 1680 c-48 -71 -87 -134 -87 -140 0 -12 270 -14 270 -2 0 4 -16
61 -36 127 -20 66 -38 126 -40 133 -2 6 -7 12 -12 12 -5 0 -48 -58 -95 -130z"/>
<path d="M6636 6228 c52 -62 599 -624 665 -685 14 -13 68 -67 120 -119 100
-102 111 -112 131 -131 59 -53 233 -241 270 -293 50 -68 98 -125 98 -115 0 7
29 -12 79 -53 46 -36 461 -455 461 -464 0 -5 10 -8 23 -9 12 0 17 -3 10 -5 -6
-3 24 -39 70 -82 44 -42 88 -85 96 -96 18 -20 155 -163 264 -274 39 -39 75
-72 79 -72 5 0 22 -10 38 -22 40 -29 47 -18 18 26 -14 20 -27 33 -31 30 -3 -3
-19 8 -36 25 -21 21 -35 29 -48 24 -15 -6 -16 -5 -5 9 11 14 10 18 -4 26 -12
7 -13 11 -5 17 8 4 -8 20 -43 42 -31 19 -56 39 -56 44 0 10 -6 17 -80 97 -26
28 -53 52 -59 52 -6 0 -11 3 -11 8 0 16 -57 72 -73 72 -9 0 -17 7 -17 15 0 9
-22 37 -50 64 -27 27 -50 53 -50 58 0 5 -11 15 -25 21 -14 6 -25 17 -25 25 0
7 -16 21 -35 31 -19 11 -33 22 -30 24 7 8 -46 62 -60 62 -7 0 -17 11 -23 24
-6 13 -20 27 -31 31 -12 3 -21 11 -21 16 0 6 -5 7 -12 3 -8 -5 -9 -2 -5 10 5
12 0 19 -18 26 -15 6 -25 17 -25 29 0 23 -25 45 -40 36 -6 -4 -20 5 -31 19
-11 15 -25 23 -31 20 -6 -4 -8 1 -3 15 5 17 3 20 -11 14 -12 -4 -15 -3 -10 5
4 7 2 12 -6 12 -7 0 -19 9 -26 20 -7 12 -17 18 -22 15 -6 -4 -10 9 -10 29 0
32 -3 36 -35 42 -24 4 -35 12 -35 24 0 10 -7 17 -16 16 -9 0 -26 18 -41 47
-14 26 -31 47 -39 47 -8 0 -14 6 -14 13 0 8 -11 24 -25 37 -17 16 -25 19 -25
9 0 -8 -8 1 -16 19 -9 17 -23 32 -30 32 -8 0 -14 5 -14 10 0 6 -6 10 -14 10
-8 0 -17 11 -20 24 -3 14 -20 34 -36 46 -17 12 -30 30 -30 41 0 10 -7 19 -15
19 -8 0 -32 18 -55 40 -24 24 -46 37 -55 34 -11 -5 -15 2 -15 26 0 39 -56 119
-82 120 -10 0 -18 4 -18 9 0 5 -7 8 -15 7 -9 0 -23 12 -33 29 -23 40 -40 57
-87 88 -22 15 -34 27 -27 27 6 0 12 5 12 10 0 6 -9 10 -20 10 -12 0 -20 7 -20
16 0 9 -13 21 -30 27 -16 6 -30 16 -30 21 0 16 -52 66 -69 66 -8 0 -12 3 -9 6
3 3 -12 23 -33 45 -21 22 -39 42 -39 44 0 18 -136 151 -210 206 -19 15 -40 25
-46 22 -6 -2 -14 5 -17 17 -3 12 -13 20 -26 20 -12 0 -21 5 -21 10 0 6 -5 10
-12 10 -6 0 -3 -10 8 -22z"/>
<path d="M3180 3871 l-195 -7 276 -2 c152 -1 292 -4 310 -7 31 -5 32 -5 10 5
-34 15 -168 18 -401 11z"/>
<path d="M9195 3870 c-3 -6 1 -7 9 -4 18 7 21 14 7 14 -6 0 -13 -4 -16 -10z"/>
<path d="M2955 3860 c-3 -5 1 -10 9 -10 9 0 16 5 16 10 0 6 -4 10 -9 10 -6 0
-13 -4 -16 -10z"/>
<path d="M10728 3863 c6 -2 18 -2 25 0 6 3 1 5 -13 5 -14 0 -19 -2 -12 -5z"/>
<path d="M10828 3863 c17 -2 47 -2 65 0 17 2 3 4 -33 4 -36 0 -50 -2 -32 -4z"/>
<path d="M9100 3805 c-20 -24 -6 -28 15 -5 10 11 13 20 8 20 -6 0 -16 -7 -23
-15z"/>
<path d="M411 2424 c0 -11 3 -14 6 -6 3 7 2 16 -1 19 -3 4 -6 -2 -5 -13z"/>
<path d="M430 2361 c0 -6 4 -13 10 -16 6 -3 7 1 4 9 -7 18 -14 21 -14 7z"/>
<path d="M5924 1473 c0 -28 3 -37 9 -27 5 8 4 27 -1 42 -8 25 -9 23 -8 -15z"/>
</g>
</svg>
